<svg xmlns="http://www.w3.org/2000/svg" xmlns:xlink="http://www.w3.org/1999/xlink" width="378" zoomAndPan="magnify" viewBox="0 0 282.96 283.499989" height="378" preserveAspectRatio="xMidYMid meet" version="1.0"><defs><clipPath id="8fb200f438"><path d="M 0.230469 0 L 282.691406 0 L 282.691406 283 L 0.230469 283 Z M 0.230469 0 " clip-rule="nonzero"/></clipPath></defs><g clip-path="url(#8fb200f438)"><path fill="#ffffff" d="M 0.230469 0 L 283.230469 0 L 283.230469 283 L 0.230469 283 Z M 0.230469 0 " fill-opacity="1" fill-rule="nonzero"/><path fill="#ffffff" d="M 0.230469 0 L 283.230469 0 L 283.230469 283 L 0.230469 283 Z M 0.230469 0 " fill-opacity="1" fill-rule="nonzero"/></g><path fill="#94ad58" d="M 91.785156 164.449219 C 91.859375 162.722656 91.953125 161.003906 92.066406 159.292969 C 93.671875 135.058594 99.410156 112.035156 117.886719 93.847656 C 122.957031 88.851562 128.625 84.339844 134.765625 80.730469 C 143.03125 75.875 151.527344 73.355469 160.929688 71.898438 C 162.96875 71.585938 164.878906 72.984375 165.195312 75.023438 C 165.507812 77.058594 164.109375 78.972656 162.070312 79.285156 C 153.625 80.59375 145.976562 82.8125 138.550781 87.175781 C 132.941406 90.472656 127.765625 94.609375 123.132812 99.171875 C 106.046875 115.992188 101.007812 137.378906 99.523438 159.789062 C 98.777344 171.042969 98.921875 182.566406 99 193.941406 C 104.558594 182.742188 112.480469 172.71875 122.496094 165.15625 C 130 159.496094 140.382812 154.507812 150.085938 156.640625 C 151.324219 156.914062 152.109375 158.136719 151.835938 159.375 C 151.566406 160.613281 150.339844 161.398438 149.101562 161.121094 C 140.679688 159.273438 131.773438 163.910156 125.261719 168.820312 C 115.019531 176.546875 107.121094 187.023438 101.839844 198.660156 C 100.800781 200.953125 99.835938 203.3125 99.019531 205.730469 C 98.960938 213.921875 98.691406 221.96875 97.839844 229.710938 C 97.296875 234.644531 96.421875 239.675781 95.222656 244.675781 C 97.023438 242.089844 99.03125 239.644531 101.089844 237.296875 C 108.703125 228.625 117.667969 221.019531 127.773438 215.398438 C 128.9375 214.753906 130.121094 214.140625 131.328125 213.574219 C 132.371094 213.078125 133.4375 212.628906 134.519531 212.234375 C 137.394531 211.175781 145.933594 208.746094 147.539062 213.296875 C 149.871094 219.914062 139.5 225.808594 135.308594 228.734375 C 124.96875 235.949219 114.289062 242.628906 103.269531 248.757812 C 99.804688 250.6875 96.097656 252.191406 92.589844 254.042969 C 90.628906 260.085938 88.199219 265.949219 85.328125 271.394531 C 84.363281 273.214844 82.101562 273.917969 80.277344 272.953125 C 78.453125 271.992188 77.753906 269.730469 78.714844 267.902344 C 83.722656 258.417969 87.285156 247.546875 89.25 236.792969 C 85.824219 234.535156 82.804688 231.246094 80.261719 228.449219 C 69.847656 216.992188 61.960938 200.847656 57.988281 185.976562 C 56.316406 179.730469 54.710938 171.085938 57.886719 164.996094 C 60.011719 160.917969 64.894531 162.652344 67.761719 164.976562 C 74.609375 170.527344 77.664062 178.253906 80.167969 186.496094 C 82.242188 193.316406 83.863281 200.296875 85.40625 207.261719 C 87.257812 215.621094 88.726562 223.992188 89.960938 232.433594 C 90.132812 231.246094 90.28125 230.070312 90.410156 228.894531 C 91.875 215.554688 91.601562 201.304688 91.507812 186.953125 C 91.054688 184.015625 90.585938 181.082031 90.171875 178.128906 C 89.027344 170.023438 88.023438 161.902344 85.996094 153.949219 C 82.566406 140.519531 77.425781 127.675781 71.125 115.378906 C 70.675781 114.5 71.023438 113.421875 71.902344 112.972656 C 72.777344 112.523438 73.855469 112.871094 74.304688 113.746094 C 80.726562 126.28125 85.964844 139.378906 89.457031 153.066406 C 90.417969 156.828125 91.152344 160.632812 91.785156 164.449219 Z M 104.917969 241.527344 C 110.316406 238.183594 115.152344 233.835938 120.296875 230.121094 C 127.402344 224.992188 134.871094 220.523438 142.605469 216.4375 C 142.867188 216.296875 142.964844 215.980469 142.828125 215.71875 C 142.691406 215.460938 142.371094 215.359375 142.109375 215.5 C 134.328125 219.605469 126.820312 224.097656 119.671875 229.261719 C 114.550781 232.960938 109.734375 237.292969 104.359375 240.621094 C 104.109375 240.773438 104.03125 241.101562 104.183594 241.351562 C 104.339844 241.601562 104.667969 241.679688 104.917969 241.527344 Z M 62.1875 169.359375 C 64.878906 174.6875 66.390625 180.660156 68.457031 186.246094 C 72.351562 196.789062 76.578125 207.382812 81.25 217.605469 C 81.371094 217.871094 81.6875 217.992188 81.953125 217.867188 C 82.21875 217.746094 82.335938 217.433594 82.214844 217.167969 C 77.558594 206.960938 73.339844 196.394531 69.453125 185.878906 C 67.375 180.253906 65.847656 174.246094 63.136719 168.878906 C 63.003906 168.617188 62.683594 168.511719 62.421875 168.644531 C 62.160156 168.773438 62.054688 169.097656 62.1875 169.359375 Z M 62.1875 169.359375 " fill-opacity="1" fill-rule="evenodd"/><path fill="#a0c7ff" d="M 159.992188 52.695312 C 155.847656 43.460938 152.347656 31.660156 156.125 23.128906 C 162.355469 9.054688 181.964844 9.613281 185.542969 23.773438 C 187.597656 31.914062 184.425781 43.574219 179.4375 52.980469 C 185.070312 44.355469 193.425781 34.574219 202.957031 33.195312 C 218.191406 30.992188 228.136719 47.902344 218.042969 58.453125 C 208.328125 68.609375 182.484375 71.605469 171.925781 66.585938 C 171.925781 66.585938 173.34375 63.351562 175.855469 58.890625 C 173.320312 62.542969 170.570312 65.472656 167.917969 67.160156 C 167.917969 67.160156 167.597656 66.691406 167.058594 65.835938 C 156.144531 71.367188 133.042969 72.066406 122.554688 64.328125 C 110.804688 55.65625 117.714844 37.296875 133.097656 36.859375 C 142.878906 36.582031 152.949219 45.066406 159.992188 52.695312 Z M 161.554688 87.042969 C 155.371094 95.265625 146.421875 104.433594 136.851562 105.183594 C 121.507812 106.390625 112.679688 88.871094 123.441406 78.996094 C 133.257812 69.988281 157.128906 68.34375 168.28125 73.058594 C 168.640625 72.4375 168.847656 72.101562 168.847656 72.101562 C 178.996094 77.914062 191.269531 100.851562 188.46875 114.625 C 185.554688 128.933594 165.992188 130.402344 159.113281 116.636719 C 154.960938 108.320312 157.867188 96.441406 161.554688 87.042969 Z M 175.375 73.289062 C 185.777344 67.945312 211.703125 70.15625 221.71875 80.007812 C 232.132812 90.25 222.703125 107.453125 207.410156 105.714844 C 189.847656 103.722656 175.375 73.289062 175.375 73.289062 Z M 175.375 73.289062 " fill-opacity="1" fill-rule="evenodd"/><path fill="#f7d864" d="M 186.394531 72.230469 C 186.394531 73.25 186.296875 74.257812 186.097656 75.257812 C 185.898438 76.257812 185.601562 77.226562 185.214844 78.171875 C 184.824219 79.113281 184.34375 80.007812 183.777344 80.855469 C 183.210938 81.703125 182.570312 82.484375 181.847656 83.207031 C 181.125 83.925781 180.34375 84.570312 179.496094 85.136719 C 178.648438 85.703125 177.753906 86.183594 176.8125 86.570312 C 175.871094 86.960938 174.898438 87.257812 173.898438 87.457031 C 172.898438 87.65625 171.890625 87.753906 170.871094 87.753906 C 169.851562 87.753906 168.839844 87.65625 167.839844 87.457031 C 166.839844 87.257812 165.871094 86.960938 164.929688 86.570312 C 163.988281 86.183594 163.09375 85.703125 162.246094 85.136719 C 161.398438 84.570312 160.613281 83.925781 159.890625 83.207031 C 159.171875 82.484375 158.527344 81.703125 157.960938 80.855469 C 157.394531 80.007812 156.917969 79.113281 156.527344 78.171875 C 156.136719 77.226562 155.84375 76.257812 155.644531 75.257812 C 155.445312 74.257812 155.34375 73.25 155.34375 72.230469 C 155.34375 71.210938 155.445312 70.199219 155.644531 69.199219 C 155.84375 68.199219 156.136719 67.230469 156.527344 66.289062 C 156.917969 65.347656 157.394531 64.453125 157.960938 63.605469 C 158.527344 62.757812 159.171875 61.972656 159.890625 61.25 C 160.613281 60.53125 161.398438 59.886719 162.246094 59.320312 C 163.09375 58.753906 163.988281 58.277344 164.929688 57.886719 C 165.871094 57.496094 166.839844 57.203125 167.839844 57.003906 C 168.839844 56.804688 169.851562 56.703125 170.871094 56.703125 C 171.890625 56.703125 172.898438 56.804688 173.898438 57.003906 C 174.898438 57.203125 175.871094 57.496094 176.8125 57.886719 C 177.753906 58.277344 178.648438 58.753906 179.496094 59.320312 C 180.34375 59.886719 181.128906 60.53125 181.847656 61.25 C 182.570312 61.972656 183.210938 62.757812 183.777344 63.605469 C 184.34375 64.453125 184.824219 65.347656 185.214844 66.289062 C 185.601562 67.230469 185.898438 68.199219 186.097656 69.199219 C 186.296875 70.199219 186.394531 71.210938 186.394531 72.230469 Z M 186.394531 72.230469 " fill-opacity="1" fill-rule="nonzero"/><path fill="#a0c7ff" d="M 53.378906 110.277344 C 51.285156 120.113281 70.933594 124.363281 76.117188 120.917969 C 87.796875 113.164062 78.730469 94.984375 76.226562 94.5 C 74.121094 94.089844 73.269531 95.980469 72.941406 97.058594 C 72.839844 97.394531 72.753906 97.738281 72.675781 98.082031 C 72.582031 98.515625 72.496094 98.949219 72.4375 99.390625 C 72.363281 99.933594 72.324219 100.480469 72.308594 101.027344 C 72.261719 102.535156 72.484375 104.015625 72.640625 105.507812 C 72.652344 105.605469 72.839844 106.8125 72.78125 106.839844 C 72.664062 106.890625 72.203125 106.367188 72.128906 106.289062 C 71.492188 105.605469 71.007812 104.8125 70.441406 104.070312 C 68.574219 101.613281 63.296875 98.03125 61.074219 101.839844 C 59.605469 104.351562 61.894531 108.390625 62.957031 110.765625 C 63.316406 111.570312 54.175781 105.613281 53.402344 110.355469 " fill-opacity="1" fill-rule="evenodd"/><path fill="#a0c7ff" d="M 143.472656 149.464844 C 141.511719 145.097656 139.859375 139.523438 141.644531 135.488281 C 144.589844 128.835938 153.859375 129.101562 155.546875 135.792969 C 156.519531 139.640625 155.023438 145.152344 152.664062 149.597656 C 155.324219 145.523438 159.277344 140.898438 163.78125 140.246094 C 170.980469 139.207031 175.679688 147.199219 170.910156 152.1875 C 166.320312 156.984375 154.105469 158.402344 149.113281 156.027344 C 149.113281 156.027344 149.78125 154.5 150.96875 152.394531 C 149.773438 154.117188 148.472656 155.503906 147.21875 156.300781 C 147.21875 156.300781 147.066406 156.078125 146.8125 155.675781 C 141.652344 158.289062 130.734375 158.621094 125.777344 154.960938 C 120.226562 150.863281 123.488281 142.1875 130.761719 141.980469 C 135.382812 141.847656 140.144531 145.859375 143.472656 149.464844 Z M 144.210938 165.699219 C 141.289062 169.582031 137.058594 173.917969 132.535156 174.273438 C 125.28125 174.84375 121.109375 166.5625 126.195312 161.894531 C 130.835938 157.636719 142.121094 156.859375 147.390625 159.089844 C 147.558594 158.796875 147.65625 158.636719 147.65625 158.636719 C 152.453125 161.382812 158.257812 172.226562 156.929688 178.734375 C 155.554688 185.496094 146.308594 186.191406 143.058594 179.683594 C 141.09375 175.753906 142.46875 170.140625 144.210938 165.699219 Z M 150.742188 159.195312 C 155.660156 156.671875 167.914062 157.714844 172.648438 162.375 C 177.570312 167.214844 173.113281 175.34375 165.882812 174.523438 C 157.582031 173.582031 150.742188 159.195312 150.742188 159.195312 Z M 150.742188 159.195312 " fill-opacity="1" fill-rule="evenodd"/><path fill="#f7d864" d="M 155.953125 158.695312 C 155.953125 159.179688 155.90625 159.65625 155.808594 160.128906 C 155.714844 160.601562 155.578125 161.058594 155.394531 161.503906 C 155.207031 161.949219 154.984375 162.371094 154.714844 162.773438 C 154.445312 163.171875 154.144531 163.542969 153.800781 163.886719 C 153.460938 164.226562 153.089844 164.53125 152.691406 164.796875 C 152.289062 165.066406 151.867188 165.292969 151.421875 165.476562 C 150.976562 165.660156 150.519531 165.800781 150.046875 165.894531 C 149.574219 165.988281 149.09375 166.035156 148.613281 166.035156 C 148.132812 166.035156 147.65625 165.988281 147.183594 165.894531 C 146.710938 165.800781 146.25 165.660156 145.804688 165.476562 C 145.359375 165.292969 144.9375 165.066406 144.535156 164.796875 C 144.136719 164.53125 143.765625 164.226562 143.425781 163.886719 C 143.085938 163.542969 142.78125 163.171875 142.511719 162.773438 C 142.246094 162.371094 142.019531 161.949219 141.835938 161.503906 C 141.648438 161.058594 141.511719 160.601562 141.417969 160.128906 C 141.324219 159.65625 141.277344 159.179688 141.277344 158.695312 C 141.277344 158.214844 141.324219 157.738281 141.417969 157.265625 C 141.511719 156.792969 141.648438 156.332031 141.835938 155.886719 C 142.019531 155.441406 142.246094 155.019531 142.511719 154.621094 C 142.78125 154.21875 143.085938 153.847656 143.425781 153.507812 C 143.765625 153.167969 144.136719 152.863281 144.535156 152.59375 C 144.9375 152.328125 145.359375 152.101562 145.804688 151.917969 C 146.25 151.734375 146.710938 151.59375 147.183594 151.5 C 147.65625 151.40625 148.132812 151.359375 148.613281 151.359375 C 149.09375 151.359375 149.574219 151.40625 150.046875 151.5 C 150.519531 151.59375 150.976562 151.734375 151.421875 151.917969 C 151.867188 152.101562 152.289062 152.328125 152.691406 152.59375 C 153.089844 152.863281 153.460938 153.167969 153.800781 153.507812 C 154.144531 153.847656 154.445312 154.21875 154.714844 154.621094 C 154.984375 155.019531 155.207031 155.441406 155.394531 155.886719 C 155.578125 156.332031 155.714844 156.792969 155.808594 157.265625 C 155.90625 157.738281 155.953125 158.214844 155.953125 158.695312 Z M 155.953125 158.695312 " fill-opacity="1" fill-rule="nonzero"/></svg>