<svg xmlns="http://www.w3.org/2000/svg" xmlns:xlink="http://www.w3.org/1999/xlink" width="378" zoomAndPan="magnify" viewBox="0 0 282.96 283.499989" height="378" preserveAspectRatio="xMidYMid meet" version="1.0"><defs><clipPath id="027fd1f027"><path d="M 0.230469 0 L 282.691406 0 L 282.691406 283 L 0.230469 283 Z M 0.230469 0 " clip-rule="nonzero"/></clipPath><clipPath id="0f8c069f16"><path d="M 9.785156 119.214844 L 269.617188 119.214844 L 269.617188 218.167969 L 9.785156 218.167969 Z M 9.785156 119.214844 " clip-rule="nonzero"/></clipPath><clipPath id="27de4b89d0"><path d="M 93.738281 216.164062 C 69.132812 205.359375 51.777344 194.941406 28.574219 181.394531 C 22.902344 178.09375 17.207031 174.644531 12.742188 169.828125 C 11.429688 168.425781 10.199219 166.820312 9.917969 164.933594 C 9.210938 160.269531 14.238281 156.9375 18.613281 155.148438 C 32.089844 149.625 46.398438 146.441406 60.667969 143.460938 C 106.347656 133.886719 152.351562 126.117188 198.6875 120.152344 C 207.234375 119.054688 216.59375 118.171875 223.855469 122.8125 C 228.148438 125.554688 231.128906 129.886719 233.992188 134.097656 L 261.898438 175.21875 C 266.113281 181.421875 270.527344 188.484375 269.269531 195.878906 C 253.382812 206.574219 244.167969 205.585938 225.3125 208.648438 C 190.289062 214.332031 139.675781 218.71875 100.386719 217.96875 " clip-rule="nonzero"/></clipPath><clipPath id="b9ffa4762f"><path d="M 9.785156 159 L 110 159 L 110 218.167969 L 9.785156 218.167969 Z M 9.785156 159 " clip-rule="nonzero"/></clipPath><clipPath id="bf1982a8d9"><path d="M 93.738281 216.164062 C 69.132812 205.359375 51.777344 194.941406 28.574219 181.394531 C 22.902344 178.09375 17.207031 174.644531 12.742188 169.828125 C 11.429688 168.425781 10.199219 166.820312 9.917969 164.933594 C 9.210938 160.269531 14.238281 156.9375 18.613281 155.148438 C 32.089844 149.625 46.398438 146.441406 60.667969 143.460938 C 106.347656 133.886719 152.351562 126.117188 198.6875 120.152344 C 207.234375 119.054688 216.59375 118.171875 223.855469 122.8125 C 228.148438 125.554688 231.128906 129.886719 233.992188 134.097656 L 261.898438 175.21875 C 266.113281 181.421875 270.527344 188.484375 269.269531 195.878906 C 253.382812 206.574219 244.167969 205.585938 225.3125 208.648438 C 190.289062 214.332031 139.675781 218.71875 100.386719 217.96875 " clip-rule="nonzero"/></clipPath><clipPath id="f873c1d7f8"><path d="M 38 129 L 253.835938 129 L 253.835938 204.796875 L 38 204.796875 Z M 38 129 " clip-rule="nonzero"/></clipPath><clipPath id="81131da60d"><path d="M 107.738281 203.339844 C 87.28125 195.046875 72.863281 187.066406 53.566406 176.675781 C 48.859375 174.136719 44.125 171.488281 40.410156 167.808594 C 39.324219 166.742188 38.296875 165.511719 38.054688 164.050781 C 37.46875 160.46875 41.652344 157.914062 45.277344 156.550781 C 56.484375 152.324219 68.382812 149.878906 80.234375 147.589844 C 118.210938 140.265625 156.457031 134.300781 194.96875 129.726562 C 202.085938 128.882812 209.855469 128.214844 215.898438 131.757812 C 219.46875 133.859375 221.941406 137.175781 224.324219 140.410156 L 247.523438 171.929688 C 251.027344 176.6875 254.691406 182.089844 253.648438 187.773438 C 240.4375 195.972656 232.789062 195.222656 217.101562 197.5625 C 187.976562 201.921875 145.90625 205.277344 113.25 204.703125 " clip-rule="nonzero"/></clipPath><clipPath id="f5fe024744"><path d="M 90.824219 69.742188 L 273 69.742188 L 273 219.464844 L 90.824219 219.464844 Z M 90.824219 69.742188 " clip-rule="nonzero"/></clipPath><clipPath id="8379ef04d4"><path d="M 91.945312 205.933594 C 89.632812 174.695312 92.039062 144.703125 91.945312 113.371094 C 91.921875 104.949219 92 96.378906 94.339844 88.289062 C 94.78125 86.75 95.34375 85.171875 96.507812 84.074219 C 97.765625 82.871094 99.53125 82.402344 101.214844 81.976562 C 150.558594 69.792969 201.976562 69.3125 252.808594 70.007812 C 255.816406 70.046875 259.050781 70.167969 261.472656 71.960938 C 264.402344 74.125 265.257812 78.058594 265.871094 81.640625 C 272.089844 118.011719 274.242188 154.960938 272.289062 191.800781 C 272.128906 194.726562 271.875 197.871094 270.03125 200.144531 C 268.332031 202.242188 265.617188 203.191406 263.035156 203.980469 C 243.644531 209.863281 223.28125 211.644531 203.085938 213.382812 L 158.542969 217.21875 C 140.300781 218.796875 121.941406 220.363281 103.726562 218.625 C 100.960938 218.355469 95.371094 218.410156 93.753906 216.148438 C 92.734375 214.757812 91.945312 205.933594 91.945312 205.933594 " clip-rule="nonzero"/></clipPath></defs><g clip-path="url(#027fd1f027)"><path fill="#ffffff" d="M 0.230469 0 L 283.230469 0 L 283.230469 283 L 0.230469 283 Z M 0.230469 0 " fill-opacity="1" fill-rule="nonzero"/><path fill="#ffffff" d="M 0.230469 0 L 283.230469 0 L 283.230469 283 L 0.230469 283 Z M 0.230469 0 " fill-opacity="1" fill-rule="nonzero"/></g><g clip-path="url(#0f8c069f16)"><g clip-path="url(#27de4b89d0)"><path stroke-linecap="butt" transform="matrix(0.133727, 0, 0, 0.133719, -32.873282, 46.072118)" fill-opacity="1" fill="#bf7788" fill-rule="nonzero" stroke-linejoin="miter" d="M -128.802991 280.191106 L 2557.007602 280.191106 L 2557.007602 1602.311658 L -128.802991 1602.311658 Z M -128.802991 280.191106 " stroke="#231f20" stroke-width="1" stroke-opacity="1" stroke-miterlimit="10"/></g></g><g clip-path="url(#b9ffa4762f)"><g clip-path="url(#bf1982a8d9)"><path fill="#8e4c5f" d="M 6.9375 159.183594 C 3.234375 164.09375 1.9375 170.738281 3.539062 176.675781 C 5.613281 184.363281 11.9375 190.101562 18.25 194.96875 C 30.21875 204.183594 43.242188 211.949219 56.496094 219.210938 C 67.261719 225.109375 78.414062 230.777344 90.503906 232.824219 C 96.171875 233.789062 102.753906 233.625 106.683594 229.441406 C 109.597656 226.324219 110.292969 221.699219 109.894531 217.445312 " fill-opacity="1" fill-rule="nonzero"/></g></g><g clip-path="url(#f873c1d7f8)"><g clip-path="url(#81131da60d)"><path stroke-linecap="butt" transform="matrix(0.133727, 0, 0, 0.133719, -32.873282, 46.072118)" fill-opacity="1" fill="#8e4c5f" fill-rule="nonzero" stroke-linejoin="miter" d="M 157.286985 415.707075 L 2390.009808 415.707075 L 2390.009808 1429.287065 L 157.286985 1429.287065 Z M 157.286985 415.707075 " stroke="#231f20" stroke-width="1" stroke-opacity="1" stroke-miterlimit="10"/></g></g><g clip-path="url(#f5fe024744)"><g clip-path="url(#8379ef04d4)"><path stroke-linecap="butt" transform="matrix(0.133727, 0, 0, 0.133719, -32.873282, 46.072118)" fill-opacity="1" fill="#ea8fa2" fill-rule="nonzero" stroke-linejoin="miter" d="M 676.303393 129.513941 L 2622.001496 129.513941 L 2622.001496 1479.094077 L 676.303393 1479.094077 Z M 676.303393 129.513941 " stroke="#231f20" stroke-width="1" stroke-opacity="1" stroke-miterlimit="10"/></g></g><path fill="#ffffff" d="M 147.402344 178.828125 C 146.75 178.414062 146.46875 177.613281 146.292969 176.847656 C 145.277344 172.410156 146.253906 167.742188 148.953125 164.078125 C 149.769531 162.984375 150.746094 161.980469 151.949219 161.339844 C 153.152344 160.695312 154.585938 160.402344 155.910156 160.738281 C 158.128906 161.3125 159.585938 163.570312 159.90625 165.84375 C 160.226562 168.117188 159.652344 170.402344 159.023438 172.609375 C 156.9375 179.992188 154.316406 187.226562 151.1875 194.234375 C 147.003906 193.070312 142.949219 191.359375 139.394531 188.859375 C 135.847656 186.355469 132.8125 183.039062 130.96875 179.121094 C 130.351562 177.839844 129.886719 176.316406 130.5 175.019531 C 130.953125 174.066406 131.945312 173.453125 132.972656 173.226562 C 134.003906 173 135.074219 173.117188 136.117188 173.320312 C 140.996094 174.269531 145.410156 176.875 148.582031 180.714844 " fill-opacity="1" fill-rule="nonzero"/><path fill="#ffffff" d="M 148.351562 177.210938 C 148.433594 177.265625 148.621094 177.519531 148.378906 177.195312 C 148.140625 176.875 148.378906 177.34375 148.257812 176.929688 C 147.925781 175.792969 147.75 174.601562 147.777344 173.414062 C 147.777344 172.636719 147.832031 171.863281 147.964844 171.101562 C 148.113281 170.242188 148.339844 169.402344 148.632812 168.585938 C 149.113281 167.25 150.011719 165.644531 150.960938 164.5625 C 152.003906 163.382812 153.273438 162.433594 154.785156 162.460938 C 155.507812 162.476562 155.839844 162.59375 156.46875 163.078125 C 156.203125 162.875 156.65625 163.265625 156.65625 163.265625 C 156.75 163.355469 156.832031 163.449219 156.925781 163.53125 C 157.300781 163.917969 156.789062 163.289062 157.097656 163.746094 C 157.246094 163.960938 157.378906 164.171875 157.5 164.398438 C 157.753906 164.933594 157.941406 165.496094 158.0625 166.085938 C 158.183594 167.007812 158.15625 167.957031 157.996094 168.867188 C 157.671875 170.871094 157.019531 172.851562 156.429688 174.804688 C 155.839844 176.757812 155.214844 178.707031 154.542969 180.648438 C 153.074219 184.925781 151.414062 189.136719 149.570312 193.285156 L 151.683594 192.429688 C 145.476562 190.691406 139.675781 187.734375 135.515625 182.785156 C 134.578125 181.664062 133.761719 180.433594 133.066406 179.148438 C 132.746094 178.574219 132.464844 177.972656 132.265625 177.359375 C 132.066406 176.714844 132.011719 176.246094 132.199219 175.804688 C 132.320312 175.539062 132.734375 175.246094 133.082031 175.152344 C 133.789062 174.976562 134.527344 174.949219 135.246094 175.070312 C 136.757812 175.3125 138.242188 175.738281 139.648438 176.339844 C 141.105469 176.984375 142.496094 177.785156 143.792969 178.722656 C 144.367188 179.148438 144.917969 179.617188 145.4375 180.113281 C 146.078125 180.714844 146.679688 181.355469 147.242188 182.039062 C 147.886719 182.8125 149.222656 182.707031 149.890625 182.039062 C 150.667969 181.261719 150.53125 180.164062 149.890625 179.390625 C 146.425781 175.285156 141.640625 172.492188 136.359375 171.488281 C 134.324219 171.125 132.144531 171.101562 130.40625 172.371094 C 126.582031 175.164062 128.976562 180.003906 131.0625 183.09375 C 133.136719 186.144531 135.796875 188.695312 138.832031 190.769531 C 142.414062 193.21875 146.507812 194.902344 150.679688 196.066406 C 151.402344 196.265625 152.457031 195.945312 152.792969 195.210938 C 154.730469 190.863281 156.496094 186.425781 158.0625 181.929688 C 158.824219 179.710938 159.546875 177.492188 160.214844 175.246094 C 160.910156 172.929688 161.632812 170.589844 161.820312 168.15625 C 162.167969 163.867188 159.734375 159.039062 154.984375 158.769531 C 150.277344 158.503906 146.910156 162.941406 145.304688 166.835938 C 144.433594 168.972656 143.980469 171.261719 144.007812 173.574219 C 144.019531 175.992188 144.328125 178.976562 146.441406 180.5 C 147.269531 181.089844 148.527344 180.648438 149.007812 179.832031 C 149.570312 178.84375 149.167969 177.8125 148.351562 177.210938 Z M 148.351562 177.210938 " fill-opacity="1" fill-rule="nonzero"/><path fill="#ffd85a" d="M 146.121094 177.585938 C 146.09375 173.359375 146.441406 169.882812 148.378906 166.941406 C 149.023438 165.976562 149.902344 165.1875 150.921875 164.65625 C 151.9375 164.105469 153.152344 163.867188 154.277344 164.160156 C 156.164062 164.640625 157.40625 166.527344 157.671875 168.410156 C 157.941406 170.296875 157.460938 172.210938 156.925781 174.054688 C 155.144531 180.207031 152.925781 186.222656 150.277344 192.054688 C 146.722656 191.089844 143.269531 189.660156 140.261719 187.574219 C 137.238281 185.488281 134.671875 182.734375 133.09375 179.46875 C 132.574219 178.402344 132.171875 177.128906 132.695312 176.0625 C 133.082031 175.273438 133.921875 174.75 134.792969 174.5625 C 135.664062 174.375 136.585938 174.46875 137.46875 174.644531 C 141.585938 175.417969 143.792969 176.757812 146.453125 179.925781 " fill-opacity="1" fill-rule="nonzero"/><path fill="#ffffff" d="M 233.082031 111.246094 C 232 110.230469 232.226562 108.371094 233.082031 107.15625 C 234.445312 105.230469 237.253906 104.480469 239.378906 105.46875 C 241.507812 106.460938 242.722656 109.132812 242.027344 111.394531 C 241.8125 112.144531 241.386719 112.796875 240.785156 113.28125 C 239.980469 113.90625 238.925781 114.082031 237.910156 114.09375 C 236.199219 114.109375 234.390625 113.613281 233.253906 112.328125 C 232.121094 111.046875 231.917969 108.878906 233.121094 107.664062 " fill-opacity="1" fill-rule="nonzero"/><path fill="#ffffff" d="M 237.589844 107.984375 C 236.039062 106.621094 235.234375 104.613281 234.660156 102.621094 C 234.152344 100.871094 233.804688 98.945312 234.460938 97.246094 C 235.273438 95.132812 237.65625 93.808594 239.914062 94.011719 C 242.175781 94.210938 244.207031 95.789062 245.171875 97.847656 C 245.492188 98.53125 245.707031 99.292969 245.664062 100.054688 C 245.613281 100.976562 245.15625 101.832031 244.703125 102.636719 C 243.472656 104.800781 242.070312 106.875 240.503906 108.8125 " fill-opacity="1" fill-rule="nonzero"/><path fill="#ffffff" d="M 240.585938 105.910156 C 242.535156 102.957031 246.523438 102.140625 249.476562 104.09375 C 250.144531 104.535156 250.734375 105.109375 251.203125 105.765625 C 251.5625 106.257812 251.832031 106.835938 251.976562 107.421875 C 252.457031 109.46875 251.148438 111.660156 249.277344 112.585938 C 247.402344 113.507812 245.117188 113.347656 243.164062 112.585938 C 241.210938 111.820312 239.527344 110.5 237.921875 109.148438 " fill-opacity="1" fill-rule="nonzero"/><path fill="#ffffff" d="M 237.214844 105.683594 C 236.734375 102.984375 234.03125 101.230469 231.382812 100.523438 C 230.300781 100.242188 229.152344 100.066406 228.054688 100.320312 C 226.957031 100.574219 226.101562 101.390625 225.566406 102.382812 C 224.84375 103.707031 224.644531 105.457031 225.460938 106.511719 C 226.316406 107.625 227.652344 108.519531 228.828125 109.269531 C 229.5 109.695312 230.273438 109.9375 231.035156 110.175781 L 235.863281 111.6875 " fill-opacity="1" fill-rule="nonzero"/><path fill="#ffffff" d="M 232.210938 110.203125 C 230.5 109.039062 228.121094 109.777344 226.460938 111.019531 C 225.300781 111.890625 224.296875 113.023438 223.816406 114.390625 C 223.332031 115.753906 223.453125 117.371094 224.335938 118.519531 C 225.714844 120.3125 228.535156 120.421875 230.515625 119.324219 C 232.492188 118.226562 233.804688 116.246094 234.96875 114.296875 C 235.4375 113.492188 235.917969 112.652344 236.023438 111.726562 " fill-opacity="1" fill-rule="nonzero"/><path fill="#ffffff" d="M 237.910156 109.160156 C 236.386719 109.617188 234.859375 113.882812 234.152344 115.3125 C 233.535156 116.554688 234.859375 123.523438 241.011719 123.132812 C 242.898438 123.015625 244.835938 122.144531 245.839844 120.554688 C 246.667969 119.230469 246.695312 117.53125 246.28125 116.019531 C 245.851562 114.523438 245.023438 113.171875 244.195312 111.847656 C 243.808594 111.234375 243.230469 110.539062 242.523438 110.671875 " fill-opacity="1" fill-rule="nonzero"/><path fill="#ffd85a" d="M 237.082031 105.496094 C 235.796875 105.308594 234.554688 106.164062 233.84375 107.25 C 232.679688 109 232.695312 111.527344 234.070312 113.117188 C 235.382812 114.628906 237.695312 115.042969 239.554688 114.308594 C 241.105469 113.695312 242.347656 112.304688 242.722656 110.671875 C 243.097656 109.039062 242.550781 107.207031 241.292969 106.113281 C 240.035156 105.015625 238.109375 104.707031 236.597656 105.445312 C 234.914062 106.273438 234.03125 108.117188 233.253906 109.828125 " fill-opacity="1" fill-rule="nonzero"/><path fill="#ffffff" d="M 208.261719 168.585938 C 206.578125 167.460938 205.816406 166.539062 205.695312 164.519531 C 205.535156 161.726562 207.472656 159.949219 210.269531 160.066406 C 212.742188 160.175781 213.25 160.882812 214.882812 163.371094 C 216.351562 162.476562 220.40625 161.21875 221.941406 162.261719 C 221.582031 160.390625 222.144531 158.996094 223.574219 156.9375 C 224.496094 155.601562 228.015625 155.105469 229.964844 156.65625 C 231.984375 158.277344 231.0625 160.828125 231.195312 163.128906 C 231.277344 164.5625 232.601562 165.296875 232.816406 166.714844 C 233.578125 171.980469 231.863281 176.433594 227.53125 178.988281 C 222.839844 181.742188 218.464844 182.480469 213.71875 180.726562 C 211.617188 179.953125 210.683594 179.269531 209.238281 177.746094 C 207.003906 175.378906 207.019531 171.539062 208.261719 168.585938 " fill-opacity="1" fill-rule="nonzero"/><path fill="#648761" d="M 209.078125 168.265625 C 207.6875 167.34375 206.777344 166.699219 206.671875 165.027344 C 206.539062 162.714844 207.59375 161.03125 209.921875 160.949219 C 212.382812 160.871094 213.265625 162.527344 214.628906 164.585938 C 215.214844 163.679688 221.914062 162.261719 223.1875 163.117188 C 222.476562 161.175781 222.785156 159.34375 224.351562 157.996094 C 225.367188 157.113281 227.34375 156.5625 228.964844 157.847656 C 230.648438 159.183594 229.726562 161.164062 229.847656 163.089844 C 229.914062 164.28125 230.929688 164.695312 231.277344 165.832031 C 232.667969 170.324219 230.582031 175.539062 226.691406 178.171875 C 222.796875 180.808594 217.917969 181.625 213.730469 179.46875 C 212.085938 178.613281 210.710938 177.664062 209.613281 176.167969 C 208.007812 174.015625 208.035156 170.710938 209.078125 168.265625 " fill-opacity="1" fill-rule="nonzero"/><path fill="#ffffff" d="M 211.230469 162.753906 C 208.890625 161.363281 207.246094 164.160156 208.71875 165.925781 C 209.144531 166.445312 209.574219 166.996094 210.1875 167.316406 C 210.804688 167.636719 211.566406 167.691406 212.167969 167.367188 C 212.847656 167.007812 213.210938 166.207031 213.171875 165.457031 C 213.128906 164.707031 212.730469 164 212.195312 163.449219 C 211.699219 162.941406 211.832031 163.101562 211.230469 162.753906 " fill-opacity="1" fill-rule="nonzero"/><path fill="#110509" d="M 209.761719 163.652344 C 209.226562 163.890625 208.902344 164.601562 209.039062 165.257812 C 209.089844 165.511719 209.183594 165.738281 209.320312 165.964844 C 209.679688 166.578125 210.242188 167.089844 210.882812 167.195312 C 211.550781 167.300781 212.195312 166.914062 212.40625 166.285156 C 212.566406 165.789062 212.449219 165.230469 212.273438 164.722656 C 212.101562 164.214844 211.847656 163.746094 211.433594 163.519531 C 211.257812 163.425781 211.070312 163.371094 210.882812 163.34375 C 210.480469 163.277344 210.082031 163.355469 209.734375 163.570312 C 209.371094 163.824219 209.171875 164.238281 209.199219 164.667969 " fill-opacity="1" fill-rule="nonzero"/><path fill="#ffffff" d="M 228.695312 160.574219 C 228.414062 157.875 225.191406 158.210938 224.644531 160.457031 C 224.484375 161.109375 224.296875 161.792969 224.417969 162.460938 C 224.535156 163.128906 224.9375 163.785156 225.554688 164.078125 C 226.25 164.414062 227.105469 164.226562 227.691406 163.730469 C 228.28125 163.238281 228.601562 162.5 228.710938 161.753906 C 228.816406 161.070312 228.777344 161.269531 228.695312 160.574219 " fill-opacity="1" fill-rule="nonzero"/><path fill="#110509" d="M 226.996094 159.773438 C 226.4375 159.546875 225.6875 159.8125 225.285156 160.375 C 225.136719 160.589844 225.03125 160.828125 224.964844 161.085938 C 224.765625 161.78125 224.804688 162.554688 225.179688 163.101562 C 225.566406 163.679688 226.316406 163.878906 226.945312 163.585938 C 227.410156 163.355469 227.757812 162.863281 228 162.382812 C 228.242188 161.898438 228.402344 161.378906 228.28125 160.898438 C 228.226562 160.695312 228.132812 160.523438 228.015625 160.363281 C 227.785156 160.015625 227.425781 159.773438 227.023438 159.667969 C 226.582031 159.574219 226.140625 159.71875 225.835938 160.054688 " fill-opacity="1" fill-rule="nonzero"/><path fill="#32492f" d="M 214.546875 171.957031 C 215.671875 174.683594 218.332031 176.757812 221.394531 176.046875 C 222.703125 175.738281 223.949219 174.882812 224.578125 173.667969 C 225.367188 172.144531 225.164062 170.417969 225.246094 168.757812 C 225.300781 167.460938 223.292969 167.476562 223.238281 168.757812 C 223.144531 170.792969 223.519531 173.371094 221.035156 174.054688 C 219.066406 174.589844 217.207031 173.171875 216.488281 171.40625 C 216.285156 170.914062 215.816406 170.550781 215.257812 170.710938 C 214.789062 170.859375 214.347656 171.449219 214.546875 171.957031 Z M 214.546875 171.957031 " fill-opacity="1" fill-rule="nonzero"/><path fill="#ffffff" d="M 146.695312 100.65625 C 145.382812 100.5625 148.96875 104.214844 149.824219 106.257812 C 150.921875 108.90625 150.71875 110.605469 150.078125 112.625 C 148.996094 116.019531 147.84375 116.929688 146.09375 118.199219 C 143.3125 120.207031 138.175781 121.207031 138.175781 121.207031 C 137.601562 122.867188 145.972656 126.867188 150.386719 126.25 C 153.582031 125.808594 157.902344 123.28125 160.015625 121.046875 C 162.125 118.816406 164.011719 114.832031 163.289062 111.660156 C 162.3125 107.476562 159.691406 103.839844 156.027344 101.578125 C 153.566406 100.066406 149.25 99.800781 146.695312 100.65625 " fill-opacity="1" fill-rule="nonzero"/><path fill="#ffd85a" d="M 148.394531 101.886719 C 150.078125 103.035156 151.148438 104.949219 151.507812 106.953125 C 151.871094 108.960938 151.574219 111.03125 150.945312 112.972656 C 150.304688 114.964844 149.289062 116.863281 147.738281 118.28125 C 145.585938 120.246094 142.628906 121.0625 139.753906 121.53125 C 142.777344 124.3125 147.269531 125.074219 151.308594 124.3125 C 154.238281 123.761719 157.070312 122.4375 159.105469 120.246094 C 161.136719 118.054688 162.261719 114.964844 161.738281 112.035156 C 161.070312 108.25 159.117188 105.148438 155.839844 103.144531 C 153.675781 101.832031 150.761719 100.976562 148.394531 101.886719 " fill-opacity="1" fill-rule="nonzero"/><path fill="#bf7788" d="M 194.796875 135.878906 C 194.808594 134.726562 193.859375 133.738281 192.777344 133.402344 C 191.695312 133.070312 190.488281 133.285156 189.40625 133.660156 C 185.6875 134.957031 182.789062 138.351562 182.09375 142.230469 C 181.398438 146.109375 182.921875 150.304688 185.945312 152.820312 C 188.964844 155.335938 193.367188 156.097656 197.054688 154.707031 C 198.046875 154.34375 198.96875 153.808594 199.757812 153.113281 C 201.027344 151.964844 201.804688 150.347656 202.339844 148.714844 C 203.207031 146.039062 203.5 143.113281 202.78125 140.382812 C 202.058594 137.65625 200.265625 135.15625 197.738281 133.925781 C 195.210938 132.695312 191.933594 132.910156 189.78125 134.726562 " fill-opacity="1" fill-rule="nonzero"/><path fill="#bf7788" d="M 193.832031 132.039062 C 193.015625 129.339844 193.699219 126.410156 195.613281 124.351562 C 196.496094 123.414062 195.078125 121.996094 194.195312 122.933594 C 191.773438 125.515625 190.90625 129.191406 191.894531 132.574219 C 192.28125 133.804688 194.222656 133.285156 193.832031 132.039062 Z M 193.832031 132.039062 " fill-opacity="1" fill-rule="nonzero"/><path fill="#bf7788" d="M 193.96875 132.320312 C 193.433594 132.28125 193.511719 131.464844 193.765625 130.984375 C 194.382812 129.808594 195.035156 128.605469 196.078125 127.761719 C 197.121094 126.933594 198.648438 126.570312 199.796875 127.253906 C 200.078125 127.425781 200.347656 127.667969 200.414062 127.988281 C 200.480469 128.308594 200.320312 128.65625 200.144531 128.953125 C 199.785156 129.527344 199.316406 130.035156 198.769531 130.4375 C 198.03125 130.984375 197.164062 131.316406 196.308594 131.652344 L 192.761719 133.03125 " fill-opacity="1" fill-rule="nonzero"/><path fill="#773c4f" d="M 59.425781 160.296875 C 66.445312 166.136719 73.785156 171.566406 81.4375 176.554688 C 83.589844 177.960938 85.769531 179.324219 87.976562 180.660156 C 89.085938 181.328125 90.089844 179.589844 88.992188 178.921875 C 81.328125 174.296875 73.933594 169.214844 66.859375 163.71875 C 64.828125 162.140625 62.820312 160.523438 60.855469 158.878906 C 59.851562 158.0625 58.433594 159.480469 59.425781 160.296875 Z M 59.425781 160.296875 " fill-opacity="1" fill-rule="nonzero"/><path fill="#773c4f" d="M 73.839844 154.800781 L 80.660156 160.054688 C 82.71875 161.644531 84.765625 163.289062 87.265625 164.105469 C 88.496094 164.507812 89.019531 162.566406 87.800781 162.167969 C 85.40625 161.378906 83.429688 159.667969 81.460938 158.15625 L 74.855469 153.0625 C 74.429688 152.726562 73.734375 152.992188 73.480469 153.421875 C 73.171875 153.945312 73.414062 154.476562 73.839844 154.800781 Z M 73.839844 154.800781 " fill-opacity="1" fill-rule="nonzero"/><path fill="#773c4f" d="M 53.125 171.40625 C 56.507812 170.457031 58.835938 167.261719 62.328125 166.660156 C 63.597656 166.433594 63.0625 164.507812 61.792969 164.722656 C 58.246094 165.351562 55.972656 168.519531 52.589844 169.46875 C 51.347656 169.828125 51.882812 171.769531 53.125 171.40625 Z M 53.125 171.40625 " fill-opacity="1" fill-rule="nonzero"/><path fill="#773c4f" d="M 64.441406 177.824219 L 68.15625 175.484375 L 69.910156 174.390625 C 70.402344 174.082031 71.113281 173.453125 71.753906 173.601562 C 73.011719 173.882812 73.546875 171.957031 72.289062 171.660156 C 70.589844 171.285156 69.160156 172.492188 67.808594 173.347656 L 63.421875 176.101562 C 62.328125 176.78125 63.328125 178.519531 64.441406 177.824219 Z M 64.441406 177.824219 " fill-opacity="1" fill-rule="nonzero"/><path fill="#773c4f" d="M 74.226562 183.964844 C 76.476562 182.519531 78.613281 180.902344 80.621094 179.148438 C 81.597656 178.292969 80.164062 176.890625 79.203125 177.730469 C 77.316406 179.375 75.3125 180.875 73.210938 182.238281 C 72.128906 182.933594 73.132812 184.660156 74.226562 183.964844 Z M 74.226562 183.964844 " fill-opacity="1" fill-rule="nonzero"/><path fill="#773c4f" d="M 73.132812 164.492188 C 74.761719 163.222656 76.609375 162.261719 78.574219 161.644531 C 79.804688 161.269531 79.28125 159.332031 78.039062 159.707031 C 75.898438 160.363281 73.894531 161.390625 72.128906 162.753906 C 71.699219 163.089844 71.472656 163.613281 71.769531 164.132812 C 72.007812 164.5625 72.703125 164.816406 73.132812 164.492188 Z M 73.132812 164.492188 " fill-opacity="1" fill-rule="nonzero"/><path fill="#773c4f" d="M 82.492188 171.996094 C 84.738281 170.523438 86.703125 168.640625 88.28125 166.445312 C 88.605469 166.003906 88.351562 165.335938 87.921875 165.070312 C 87.414062 164.761719 86.867188 164.988281 86.542969 165.429688 C 85.167969 167.328125 83.441406 168.960938 81.476562 170.257812 C 80.40625 170.964844 81.410156 172.703125 82.492188 171.996094 Z M 82.492188 171.996094 " fill-opacity="1" fill-rule="nonzero"/><path fill="#773c4f" d="M 85.996094 155.375 C 87.414062 154.707031 88.710938 153.808594 89.847656 152.726562 C 90.785156 151.832031 89.367188 150.425781 88.429688 151.308594 C 87.414062 152.273438 86.25 153.0625 84.992188 153.648438 C 83.816406 154.199219 84.832031 155.921875 85.996094 155.375 Z M 85.996094 155.375 " fill-opacity="1" fill-rule="nonzero"/></svg>