<svg xmlns="http://www.w3.org/2000/svg" xmlns:xlink="http://www.w3.org/1999/xlink" width="378" zoomAndPan="magnify" viewBox="0 0 282.96 283.499989" height="378" preserveAspectRatio="xMidYMid meet" version="1.0"><defs><clipPath id="0a76bb4881"><path d="M 0.230469 0 L 282.691406 0 L 282.691406 283 L 0.230469 283 Z M 0.230469 0 " clip-rule="nonzero"/></clipPath><clipPath id="6826c52e80"><path d="M 95 141 L 189 141 L 189 254.910156 L 95 254.910156 Z M 95 141 " clip-rule="nonzero"/></clipPath><clipPath id="68715a9bc7"><path d="M 95 165 L 188.730469 165 L 188.730469 254.910156 L 95 254.910156 Z M 95 165 " clip-rule="nonzero"/></clipPath><clipPath id="1ca75a92f6"><path d="M 106.808594 151.277344 C 106.808594 151.277344 99.191406 228.730469 95.152344 241.980469 C 95.152344 241.980469 93.515625 254.40625 126.046875 253.441406 L 182.648438 254.667969 C 182.648438 254.667969 190.425781 254.546875 187.855469 241.042969 L 185.8125 141.65625 Z M 106.808594 151.277344 " clip-rule="evenodd"/></clipPath><clipPath id="f75afa448c"><path d="M 28.527344 37 L 254.625 37 L 254.625 189 L 28.527344 189 Z M 28.527344 37 " clip-rule="nonzero"/></clipPath><clipPath id="725a60daac"><path d="M 28.527344 37.199219 L 254.625 37.199219 L 254.625 188.765625 L 28.527344 188.765625 Z M 28.527344 37.199219 " clip-rule="nonzero"/></clipPath><clipPath id="1123cc4e2b"><path d="M 28.535156 176.746094 C 28.535156 176.746094 31.984375 145.347656 43.15625 113.257812 C 55.96875 76.460938 89.023438 41.449219 142.40625 37.777344 C 196.457031 34.050781 237.113281 64.070312 244.789062 110.441406 C 247.992188 129.753906 254.898438 154.957031 254.800781 174.535156 C 180.730469 193.125 100.457031 191.164062 28.535156 176.746094 Z M 28.535156 176.746094 " clip-rule="evenodd"/></clipPath></defs><g clip-path="url(#0a76bb4881)"><path fill="#ffffff" d="M 0.230469 0 L 283.230469 0 L 283.230469 283 L 0.230469 283 Z M 0.230469 0 " fill-opacity="1" fill-rule="nonzero"/><path fill="#ffffff" d="M 0.230469 0 L 283.230469 0 L 283.230469 283 L 0.230469 283 Z M 0.230469 0 " fill-opacity="1" fill-rule="nonzero"/></g><g clip-path="url(#6826c52e80)"><path fill="#f7d864" d="M 106.808594 151.277344 C 106.808594 151.277344 99.191406 228.730469 95.152344 241.980469 C 95.152344 241.980469 93.515625 254.40625 126.046875 253.441406 L 182.648438 254.667969 C 182.648438 254.667969 190.425781 254.546875 187.855469 241.042969 L 185.8125 141.65625 Z M 106.808594 151.277344 " fill-opacity="1" fill-rule="evenodd"/></g><g clip-path="url(#68715a9bc7)"><g clip-path="url(#1ca75a92f6)"><path fill="#94ad58" d="M 103.082031 206.167969 C 103.066406 207.882812 101.65625 209.253906 99.945312 209.238281 C 98.234375 209.21875 96.859375 207.808594 96.878906 206.097656 C 96.90625 203.011719 98.1875 200.125 99.902344 197.628906 C 100.945312 196.121094 102.066406 194.5625 103.378906 193.277344 C 104.359375 192.316406 105.445312 191.546875 106.667969 190.933594 C 108.984375 189.773438 110.929688 189.675781 112.550781 190.113281 C 114.230469 190.566406 115.644531 191.617188 116.789062 193.160156 C 119.015625 196.148438 120.058594 201.445312 121.28125 204.253906 C 121.671875 205.152344 122.164062 206.207031 123.242188 205.992188 C 124.5 205.75 125.1875 204.859375 125.757812 203.824219 C 126.363281 202.71875 126.816406 201.445312 127.289062 200.160156 C 128.941406 195.613281 130.953125 191.234375 135.671875 189.816406 C 139.933594 188.542969 143.027344 191.539062 144.597656 195.007812 C 145.363281 196.710938 145.976562 199.375 146.941406 201.730469 C 147.226562 202.433594 147.546875 203.113281 147.949219 203.683594 C 148.269531 204.136719 148.597656 204.554688 149.117188 204.664062 C 151.015625 205.074219 151.976562 203.957031 152.773438 202.585938 C 153.714844 200.953125 154.4375 198.976562 155.277344 197.148438 C 157.28125 192.785156 160.019531 189.363281 164.90625 189.320312 C 169.632812 189.273438 171.871094 192.046875 173.179688 195.863281 C 173.832031 197.746094 174.207031 199.929688 174.839844 201.792969 C 175.140625 202.675781 175.347656 203.574219 176.15625 203.859375 C 177.796875 204.441406 178.652344 203.371094 179.429688 202.253906 C 180.507812 200.714844 181.425781 198.902344 182.488281 197.484375 C 184.894531 194.285156 187.835938 192.476562 191.039062 191.90625 C 194.148438 191.34375 197.582031 191.96875 201.085938 193.902344 C 203.34375 195.148438 205.257812 197.023438 206.425781 199.339844 C 207.203125 200.863281 206.585938 202.738281 205.054688 203.503906 C 203.527344 204.28125 201.65625 203.664062 200.890625 202.128906 C 200.285156 200.925781 199.257812 199.980469 198.082031 199.332031 C 195.996094 198.179688 193.988281 197.671875 192.136719 198.011719 C 190.351562 198.332031 188.78125 199.4375 187.445312 201.222656 C 186.109375 202.996094 184.984375 205.402344 183.503906 207.125 C 181.257812 209.726562 178.421875 211.234375 174.097656 209.710938 C 170.90625 208.585938 169.308594 205.394531 168.328125 201.621094 C 167.945312 200.160156 167.632812 198.617188 167.097656 197.308594 C 166.707031 196.351562 166.207031 195.515625 164.960938 195.523438 C 163.46875 195.53125 162.648438 196.566406 161.9375 197.753906 C 160.6875 199.832031 159.824219 202.460938 158.699219 204.664062 C 157.445312 207.140625 155.847656 209.128906 153.699219 210.164062 C 152.113281 210.929688 150.203125 211.242188 147.8125 210.734375 C 145.203125 210.171875 143.265625 208.273438 141.921875 205.671875 C 140.566406 203.039062 139.863281 199.609375 138.933594 197.558594 C 138.695312 197.023438 138.390625 196.460938 138 196.03125 C 137.855469 195.882812 137.695312 195.695312 137.453125 195.765625 C 136.074219 196.183594 135.316406 197.253906 134.679688 198.457031 C 133.710938 200.320312 133.078125 202.53125 132.273438 204.519531 C 130.730469 208.300781 128.53125 211.296875 124.417969 212.089844 C 120.183594 212.910156 117.152344 210.296875 115.59375 206.742188 C 114.648438 204.574219 113.90625 200.785156 112.480469 197.984375 C 112.0625 197.148438 111.695312 196.308594 110.9375 196.105469 C 110.519531 195.996094 110.054688 196.183594 109.457031 196.476562 C 108.816406 196.800781 108.238281 197.199219 107.730469 197.699219 C 106.695312 198.714844 105.828125 199.957031 105.019531 201.140625 C 103.992188 202.640625 103.101562 204.316406 103.082031 206.167969 Z M 97.46875 251.371094 C 97.449219 253.085938 96.039062 254.457031 94.328125 254.441406 C 92.617188 254.421875 91.242188 253.011719 91.261719 251.300781 C 91.296875 248.214844 92.570312 245.328125 94.292969 242.832031 C 95.328125 241.324219 96.449219 239.765625 97.761719 238.480469 C 98.742188 237.515625 99.839844 236.757812 101.058594 236.144531 C 103.371094 234.976562 105.3125 234.878906 106.9375 235.316406 C 108.613281 235.769531 110.03125 236.832031 111.171875 238.363281 C 113.398438 241.351562 114.441406 246.65625 115.664062 249.457031 C 116.066406 250.367188 116.546875 251.410156 117.625 251.203125 C 118.882812 250.953125 119.570312 250.0625 120.140625 249.027344 C 120.746094 247.921875 121.210938 246.648438 121.671875 245.363281 C 123.324219 240.824219 125.335938 236.4375 130.054688 235.03125 C 134.316406 233.746094 137.417969 236.742188 138.980469 240.210938 C 139.746094 241.921875 140.359375 244.578125 141.324219 246.933594 C 141.617188 247.644531 141.9375 248.316406 142.339844 248.886719 C 142.652344 249.339844 142.980469 249.757812 143.5 249.867188 C 145.398438 250.277344 146.359375 249.160156 147.15625 247.789062 C 148.101562 246.15625 148.820312 244.1875 149.667969 242.351562 C 151.667969 237.988281 154.402344 234.566406 159.289062 234.523438 C 164.023438 234.484375 166.261719 237.257812 167.570312 241.074219 C 168.214844 242.957031 168.589844 245.132812 169.222656 246.996094 C 169.523438 247.886719 169.738281 248.777344 170.550781 249.0625 C 172.191406 249.644531 173.039062 248.574219 173.8125 247.457031 C 174.890625 245.917969 175.808594 244.105469 176.871094 242.6875 C 179.277344 239.488281 182.21875 237.679688 185.421875 237.109375 C 188.542969 236.546875 191.964844 237.167969 195.46875 239.105469 C 197.726562 240.351562 199.640625 242.226562 200.808594 244.542969 C 201.585938 246.066406 200.96875 247.941406 199.4375 248.707031 C 197.914062 249.484375 196.050781 248.867188 195.273438 247.332031 C 194.667969 246.140625 193.640625 245.183594 192.464844 244.535156 C 190.378906 243.382812 188.371094 242.886719 186.519531 243.214844 C 184.734375 243.535156 183.164062 244.640625 181.828125 246.425781 C 180.492188 248.207031 179.367188 250.613281 177.886719 252.335938 C 175.640625 254.9375 172.804688 256.445312 168.480469 254.914062 C 165.296875 253.789062 163.695312 250.597656 162.710938 246.835938 C 162.339844 245.363281 162.015625 243.820312 161.480469 242.511719 C 161.097656 241.554688 160.589844 240.71875 159.34375 240.726562 C 157.855469 240.746094 157.042969 241.78125 156.328125 242.964844 C 155.070312 245.035156 154.207031 247.664062 153.082031 249.867188 C 151.828125 252.34375 150.230469 254.332031 148.089844 255.367188 C 146.496094 256.132812 144.585938 256.445312 142.199219 255.9375 C 139.585938 255.375 137.660156 253.484375 136.3125 250.875 C 134.957031 248.253906 134.246094 244.820312 133.316406 242.761719 C 133.078125 242.226562 132.78125 241.671875 132.382812 241.246094 C 132.238281 241.082031 132.085938 240.898438 131.847656 240.96875 C 130.457031 241.386719 129.699219 242.457031 129.066406 243.660156 C 128.09375 245.53125 127.46875 247.734375 126.65625 249.722656 C 125.113281 253.503906 122.914062 256.5 118.800781 257.292969 C 114.566406 258.113281 111.535156 255.5 109.984375 251.945312 C 109.039062 249.785156 108.289062 245.988281 106.875 243.1875 C 106.445312 242.351562 106.078125 241.511719 105.332031 241.316406 C 104.910156 241.199219 104.4375 241.386719 103.84375 241.691406 C 103.199219 242.011719 102.628906 242.402344 102.113281 242.902344 C 101.085938 243.917969 100.222656 245.160156 99.402344 246.34375 C 98.375 247.84375 97.484375 249.527344 97.46875 251.371094 Z M 101.292969 182.203125 C 101.265625 183.914062 99.867188 185.289062 98.152344 185.269531 C 96.441406 185.253906 95.058594 183.84375 95.085938 182.132812 C 95.113281 179.046875 96.398438 176.160156 98.109375 173.664062 C 99.144531 172.15625 100.277344 170.59375 101.585938 169.3125 C 102.558594 168.347656 103.65625 167.582031 104.875 166.976562 C 107.183594 165.808594 109.136719 165.71875 110.761719 166.148438 C 112.4375 166.601562 113.84375 167.664062 114.996094 169.195312 C 117.214844 172.183594 118.265625 177.488281 119.488281 180.285156 C 119.882812 181.1875 120.371094 182.238281 121.449219 182.035156 C 122.707031 181.785156 123.394531 180.894531 123.964844 179.859375 C 124.570312 178.753906 125.027344 177.480469 125.5 176.195312 C 127.148438 171.65625 129.164062 167.269531 133.878906 165.863281 C 138.140625 164.578125 141.234375 167.574219 142.804688 171.042969 C 143.570312 172.753906 144.1875 175.410156 145.148438 177.765625 C 145.433594 178.46875 145.753906 179.144531 146.15625 179.726562 C 146.476562 180.171875 146.808594 180.589844 147.324219 180.695312 C 149.222656 181.105469 150.1875 179.992188 150.980469 178.621094 C 151.925781 176.988281 152.648438 175.019531 153.484375 173.179688 C 155.492188 168.820312 158.226562 165.398438 163.113281 165.351562 C 167.839844 165.316406 170.078125 168.089844 171.386719 171.90625 C 172.039062 173.777344 172.414062 175.964844 173.046875 177.828125 C 173.347656 178.710938 173.554688 179.609375 174.367188 179.894531 C 176.007812 180.472656 176.863281 179.40625 177.636719 178.289062 C 178.707031 176.746094 179.625 174.9375 180.6875 173.527344 C 183.101562 170.320312 186.046875 168.507812 189.246094 167.9375 C 192.359375 167.378906 195.78125 168 199.285156 169.9375 C 201.550781 171.183594 203.46875 173.066406 204.636719 175.375 C 205.410156 176.898438 204.796875 178.769531 203.261719 179.539062 C 201.738281 180.3125 199.863281 179.699219 199.097656 178.175781 C 198.492188 176.96875 197.457031 176.015625 196.289062 175.367188 C 194.203125 174.214844 192.199219 173.714844 190.34375 174.046875 C 188.558594 174.367188 186.992188 175.472656 185.652344 177.253906 C 184.316406 179.039062 183.191406 181.445312 181.703125 183.15625 C 179.457031 185.769531 176.628906 187.277344 172.304688 185.742188 C 169.113281 184.621094 167.507812 181.429688 166.539062 177.664062 C 166.152344 176.195312 165.84375 174.652344 165.308594 173.339844 C 164.914062 172.386719 164.414062 171.550781 163.167969 171.558594 C 161.679688 171.578125 160.859375 172.609375 160.144531 173.796875 C 158.898438 175.863281 158.03125 178.496094 156.910156 180.695312 C 155.652344 183.175781 154.046875 185.164062 151.90625 186.199219 C 150.320312 186.964844 148.410156 187.277344 146.023438 186.769531 C 143.410156 186.207031 141.476562 184.308594 140.128906 181.703125 C 138.773438 179.082031 138.070312 175.652344 137.140625 173.589844 C 136.902344 173.054688 136.597656 172.496094 136.207031 172.074219 C 136.0625 171.914062 135.902344 171.726562 135.664062 171.800781 C 134.28125 172.21875 133.511719 173.289062 132.890625 174.492188 C 131.917969 176.363281 131.285156 178.566406 130.480469 180.554688 C 128.929688 184.335938 126.738281 187.332031 122.628906 188.125 C 118.390625 188.945312 115.359375 186.332031 113.800781 182.773438 C 112.855469 180.617188 112.105469 176.820312 110.6875 174.019531 C 110.261719 173.179688 109.90625 172.34375 109.148438 172.148438 C 108.726562 172.03125 108.265625 172.21875 107.667969 172.519531 C 107.023438 172.84375 106.445312 173.234375 105.9375 173.734375 C 104.902344 174.75 104.039062 175.988281 103.226562 177.175781 C 102.203125 178.671875 101.308594 180.359375 101.292969 182.203125 Z M 99.777344 223.734375 C 99.972656 223.671875 100.300781 223.554688 100.550781 223.414062 C 101.417969 222.949219 102.015625 221.90625 102.683594 220.863281 C 103.761719 219.179688 104.832031 217.351562 106.089844 215.960938 C 108.46875 213.3125 111.410156 211.875 115.699219 213.535156 C 117.117188 214.085938 118.152344 215.101562 118.882812 216.386719 C 119.605469 217.679688 119.96875 219.285156 120.210938 220.605469 C 120.488281 222.164062 120.914062 224.089844 121.824219 225.550781 C 122.304688 226.335938 122.984375 226.96875 124.082031 226.828125 C 125.355469 226.667969 126.230469 225.613281 127.121094 224.492188 C 128.546875 222.683594 129.824219 220.496094 131.238281 218.722656 C 133.96875 215.300781 137.203125 213.257812 141.726562 214.667969 C 143.007812 215.066406 144.023438 215.898438 144.773438 217.003906 C 145.503906 218.082031 145.949219 219.464844 146.21875 220.59375 C 146.539062 221.941406 146.726562 223.714844 147.164062 225.355469 C 147.449219 226.445312 147.636719 227.703125 148.9375 227.675781 C 150.042969 227.65625 150.808594 227.003906 151.503906 226.238281 C 152.710938 224.917969 153.699219 223.207031 154.777344 221.636719 C 156.828125 218.660156 159.246094 216.226562 162.640625 215.65625 C 166.796875 214.953125 169.648438 217.867188 170.96875 221.34375 C 171.601562 222.992188 172.136719 225.097656 172.957031 226.863281 C 173.332031 227.675781 173.632812 228.496094 174.367188 228.734375 C 174.792969 228.871094 175.300781 228.71875 175.953125 228.449219 C 176.863281 228.074219 177.664062 227.496094 178.421875 226.882812 C 179.964844 225.640625 181.390625 224.261719 182.84375 222.921875 C 184.742188 221.167969 186.910156 219.527344 188.460938 217.449219 C 189.488281 216.074219 191.441406 215.796875 192.8125 216.824219 C 194.175781 217.847656 194.460938 219.800781 193.425781 221.167969 C 191.652344 223.539062 189.226562 225.472656 187.0625 227.476562 C 185.511719 228.914062 183.96875 230.386719 182.320312 231.714844 C 181.097656 232.703125 179.777344 233.585938 178.316406 234.191406 C 175.808594 235.226562 173.8125 235.144531 172.199219 234.546875 C 170.558594 233.941406 169.238281 232.746094 168.214844 231.125 C 166.851562 228.949219 166.054688 225.863281 165.171875 223.554688 C 164.976562 223.039062 164.726562 222.519531 164.378906 222.121094 C 164.203125 221.914062 163.988281 221.71875 163.675781 221.773438 C 162.507812 221.96875 161.707031 222.804688 160.9375 223.742188 C 159.71875 225.230469 158.691406 227.042969 157.542969 228.621094 C 155.367188 231.625 152.761719 233.816406 149.042969 233.878906 C 145.675781 233.933594 143.632812 232.320312 142.332031 229.976562 C 141.046875 227.65625 140.726562 224.3125 140.183594 222.039062 C 140.085938 221.628906 139.753906 220.800781 139.636719 220.523438 C 138.65625 220.320312 137.898438 220.730469 137.230469 221.34375 C 136.367188 222.136719 135.601562 223.199219 134.84375 224.296875 C 133.363281 226.445312 131.890625 228.726562 130.171875 230.339844 C 128.617188 231.777344 126.871094 232.730469 124.855469 232.988281 C 120.941406 233.480469 118.304688 231.640625 116.554688 228.84375 C 115.234375 226.71875 114.503906 223.957031 114.09375 221.710938 C 114.003906 221.175781 113.890625 220.550781 113.695312 219.960938 C 113.621094 219.738281 113.425781 219.390625 113.371094 219.292969 C 112.078125 218.820312 111.242188 219.464844 110.527344 220.300781 C 109.949219 220.988281 109.421875 221.808594 108.90625 222.621094 C 107.273438 225.214844 105.589844 227.753906 103.503906 228.878906 C 101.121094 230.160156 99.25 230.179688 97.796875 229.707031 C 96.238281 229.199219 94.980469 228.050781 94.078125 226.371094 C 93.242188 224.832031 92.707031 222.734375 92.1875 220.800781 C 92 220.078125 91.804688 219.382812 91.574219 218.785156 C 91.503906 218.589844 91.351562 218.304688 91.304688 218.234375 C 90.71875 217.722656 90.085938 218.132812 89.550781 218.570312 C 88.371094 219.515625 87.417969 221.03125 87.222656 222.183594 C 86.917969 223.867188 85.316406 225 83.628906 224.707031 C 81.945312 224.402344 80.8125 222.796875 81.105469 221.113281 C 81.597656 218.304688 84.148438 214.328125 87.25 212.679688 C 89.925781 211.25 92.902344 211.199219 95.621094 213.765625 C 96.324219 214.433594 96.949219 215.441406 97.421875 216.699219 C 97.878906 217.910156 98.234375 219.425781 98.644531 220.898438 C 98.902344 221.871094 99.5625 223.296875 99.777344 223.734375 Z M 99.777344 223.734375 " fill-opacity="1" fill-rule="evenodd"/></g></g><g clip-path="url(#f75afa448c)"><path fill="#ef716f" d="M 28.535156 176.746094 C 28.535156 176.746094 31.984375 145.347656 43.15625 113.257812 C 55.96875 76.460938 89.023438 41.449219 142.40625 37.777344 C 196.457031 34.050781 237.113281 64.070312 244.789062 110.441406 C 247.992188 129.753906 254.898438 154.957031 254.800781 174.535156 C 180.730469 193.125 100.457031 191.164062 28.535156 176.746094 Z M 28.535156 176.746094 " fill-opacity="1" fill-rule="evenodd"/></g><g clip-path="url(#725a60daac)"><g clip-path="url(#1123cc4e2b)"><path fill="#fdb6b5" d="M 53.363281 93.652344 C 82.230469 94 87.6875 115.886719 82.964844 138.792969 C 81.171875 147.511719 73.941406 154.074219 66.300781 157.976562 C 60.90625 160.734375 54.921875 162.523438 48.84375 162.585938 C 29.523438 162.773438 15.925781 144.835938 19.035156 126.210938 C 21.746094 109.964844 29.878906 93.355469 53.363281 93.652344 Z M 137.136719 144.578125 C 165.996094 144.933594 171.460938 166.824219 166.734375 189.726562 C 164.933594 198.4375 157.714844 205 150.0625 208.914062 C 144.679688 211.660156 138.695312 213.453125 132.613281 213.515625 C 113.285156 213.703125 99.6875 195.773438 102.800781 177.136719 C 105.519531 160.894531 113.652344 144.292969 137.136719 144.578125 Z M 146.230469 65.476562 C 175.089844 65.832031 180.554688 87.722656 175.828125 110.625 C 174.027344 119.335938 166.796875 125.898438 159.15625 129.804688 C 153.773438 132.558594 147.789062 134.351562 141.710938 134.414062 C 122.386719 134.601562 108.792969 116.671875 111.902344 98.039062 C 114.613281 81.792969 122.746094 65.191406 146.230469 65.476562 Z M 217.03125 38.308594 C 245.890625 38.667969 251.355469 60.554688 246.628906 83.460938 C 244.839844 92.171875 237.609375 98.734375 229.957031 102.648438 C 224.574219 105.394531 218.589844 107.183594 212.507812 107.246094 C 193.1875 107.433594 179.59375 89.503906 182.703125 70.871094 C 185.414062 54.625 193.546875 38.023438 217.03125 38.308594 Z M 91.363281 5.695312 C 120.222656 6.054688 125.6875 27.941406 120.960938 50.847656 C 119.171875 59.554688 111.9375 66.117188 104.289062 70.03125 C 98.90625 72.777344 92.921875 74.570312 86.839844 74.632812 C 67.519531 74.820312 53.925781 56.890625 57.035156 38.257812 C 59.746094 22.011719 67.878906 5.410156 91.363281 5.695312 Z M 242.269531 129.324219 C 271.132812 129.671875 276.597656 151.558594 271.871094 174.464844 C 270.078125 183.183594 262.847656 189.746094 255.207031 193.652344 C 249.8125 196.40625 243.832031 198.199219 237.75 198.261719 C 218.429688 198.445312 204.832031 180.507812 207.945312 161.882812 C 210.65625 145.640625 218.785156 129.027344 242.269531 129.324219 Z M 242.269531 129.324219 " fill-opacity="1" fill-rule="evenodd"/></g></g></svg>