<svg xmlns="http://www.w3.org/2000/svg" xmlns:xlink="http://www.w3.org/1999/xlink" width="378" zoomAndPan="magnify" viewBox="0 0 282.96 283.499989" height="378" preserveAspectRatio="xMidYMid meet" version="1.0"><defs><clipPath id="c168c9d23a"><path d="M 0.230469 0 L 282.691406 0 L 282.691406 283 L 0.230469 283 Z M 0.230469 0 " clip-rule="nonzero"/></clipPath><clipPath id="c0d1e286da"><path d="M 162 151 L 213.8125 151 L 213.8125 168 L 162 168 Z M 162 151 " clip-rule="nonzero"/></clipPath><clipPath id="2456e156ea"><path d="M 179.402344 151.0625 C 180.964844 150.039062 182.386719 148.714844 183.847656 147.464844 C 186.664062 145.050781 189.582031 142.863281 193.066406 142.007812 C 194.960938 141.535156 196.214844 142.242188 197.09375 143.605469 C 197.308594 143.945312 197.550781 144.972656 197.675781 145.554688 C 197.914062 146.300781 198.148438 147.046875 198.382812 147.792969 C 199.644531 151.835938 200.683594 155.9375 201.898438 159.988281 C 205.292969 171.308594 209.96875 182.164062 212.746094 193.667969 C 213.46875 196.660156 214.007812 200.449219 213.589844 203.910156 C 213.257812 206.636719 212.339844 209.171875 210.664062 211.175781 C 208.433594 213.847656 203.742188 215.066406 200.539062 215.699219 C 191.613281 217.492188 181.324219 217.871094 172.5 215.640625 C 168.796875 214.707031 164.296875 211.871094 162.558594 208.339844 C 160.683594 204.527344 161.777344 200.8125 162.902344 197.003906 C 164.359375 192.082031 166.078125 187.246094 167.460938 182.3125 C 170.398438 171.808594 171.664062 160.714844 172.367188 149.863281 C 172.492188 147.90625 174.183594 146.417969 176.136719 146.550781 C 178.09375 146.675781 179.578125 148.363281 179.449219 150.320312 C 179.433594 150.570312 179.417969 150.8125 179.402344 151.0625 Z M 179.402344 151.0625 " clip-rule="evenodd"/></clipPath><clipPath id="e851ad8ec9"><path d="M 118 56 L 254.625 56 L 254.625 164 L 118 164 Z M 118 56 " clip-rule="nonzero"/></clipPath><clipPath id="b31fac332d"><path d="M 118.589844 56.632812 L 254.625 56.632812 L 254.625 164 L 118.589844 164 Z M 118.589844 56.632812 " clip-rule="nonzero"/></clipPath><clipPath id="49e02ecada"><path d="M 119.304688 159.410156 C 118.449219 152.398438 118.855469 145.648438 119.175781 138.617188 C 119.589844 129.582031 120.039062 120.542969 121.730469 111.636719 C 124.054688 99.363281 128.207031 87.875 136.441406 78.292969 C 140.695312 73.351562 146.335938 69.003906 151.828125 65.570312 C 162.597656 58.824219 176.160156 55.449219 188.871094 57.398438 C 212.425781 61.019531 234.464844 78.996094 242.941406 101.234375 C 247.460938 113.09375 250.054688 125.894531 252.800781 138.277344 C 253.011719 139.214844 253.195312 140.15625 253.410156 141.09375 C 253.78125 142.710938 254.882812 146.238281 254.839844 148.914062 C 254.804688 150.996094 254.132812 152.714844 252.996094 153.839844 C 251.371094 155.445312 248.703125 156.367188 246.554688 156.984375 C 242.695312 158.089844 238.617188 158.621094 234.664062 159.273438 C 217.375 162.15625 199.75 159.605469 182.359375 161.136719 C 176.34375 161.660156 170.21875 161.742188 164.234375 162.457031 C 151.902344 163.917969 134.558594 164.976562 122.125 162.457031 C 120.625 162.152344 119.488281 160.925781 119.304688 159.410156 Z M 119.304688 159.410156 " clip-rule="evenodd"/></clipPath><clipPath id="863e533738"><path d="M 56 190 L 84 190 L 84 200 L 56 200 Z M 56 190 " clip-rule="nonzero"/></clipPath><clipPath id="f35a387278"><path d="M 55.683594 185.417969 L 83.304688 184.644531 L 84.476562 226.472656 L 56.855469 227.246094 Z M 55.683594 185.417969 " clip-rule="nonzero"/></clipPath><clipPath id="563ac458c9"><path d="M 65.292969 190.523438 C 66.101562 189.9375 66.832031 189.1875 67.585938 188.480469 C 69.03125 187.113281 70.539062 185.867188 72.367188 185.34375 C 73.359375 185.058594 74.03125 185.429688 74.515625 186.164062 C 74.636719 186.347656 74.777344 186.910156 74.855469 187.226562 C 74.992188 187.632812 75.125 188.042969 75.261719 188.445312 C 75.988281 190.648438 76.601562 192.890625 77.304688 195.097656 C 79.269531 201.269531 81.90625 207.164062 83.546875 213.445312 C 83.976562 215.078125 84.320312 217.152344 84.152344 219.058594 C 84.019531 220.5625 83.570312 221.96875 82.71875 223.09375 C 81.582031 224.59375 79.125 225.335938 77.445312 225.730469 C 72.761719 226.847656 67.335938 227.207031 62.640625 226.113281 C 60.675781 225.65625 58.257812 224.164062 57.285156 222.246094 C 56.234375 220.179688 56.753906 218.121094 57.292969 216.015625 C 57.984375 213.285156 58.816406 210.605469 59.472656 207.871094 C 60.859375 202.058594 61.355469 195.941406 61.558594 189.96875 C 61.597656 188.890625 62.464844 188.050781 63.5 188.09375 C 64.535156 188.132812 65.34375 189.039062 65.308594 190.113281 C 65.300781 190.253906 65.296875 190.386719 65.292969 190.523438 Z M 65.292969 190.523438 " clip-rule="evenodd"/></clipPath><clipPath id="9a347be189"><path d="M 37 128 L 100 128 L 100 194 L 37 194 Z M 37 128 " clip-rule="nonzero"/></clipPath><clipPath id="e0d65dc495"><path d="M 32.664062 125.175781 L 109.582031 126.472656 L 108.378906 198.050781 L 31.460938 196.757812 Z M 32.664062 125.175781 " clip-rule="nonzero"/></clipPath><clipPath id="725b59da05"><path d="M 32.675781 195.652344 C 31.890625 195.472656 28.53125 196.214844 43.878906 149.699219 C 46.609375 141.433594 54.148438 128.976562 65.234375 126.535156 C 84.640625 122.253906 95.625 150.957031 99.894531 163.257812 C 102.171875 169.8125 110.300781 192.101562 107.769531 193.714844 C 105.972656 194.855469 97.082031 194.757812 94.988281 195.085938 C 85.835938 196.515625 76.550781 194.957031 67.355469 195.644531 C 64.175781 195.875 60.941406 195.867188 57.777344 196.207031 C 51.25 196.902344 39.21875 197.148438 32.675781 195.652344 Z M 32.675781 195.652344 " clip-rule="evenodd"/></clipPath></defs><g clip-path="url(#c168c9d23a)"><path fill="#ffffff" d="M 0.230469 0 L 283.230469 0 L 283.230469 283 L 0.230469 283 Z M 0.230469 0 " fill-opacity="1" fill-rule="nonzero"/><path fill="#ffffff" d="M 0.230469 0 L 283.230469 0 L 283.230469 283 L 0.230469 283 Z M 0.230469 0 " fill-opacity="1" fill-rule="nonzero"/></g><path fill="#94ad58" d="M 179.402344 151.0625 C 180.964844 150.039062 182.386719 148.714844 183.847656 147.464844 C 186.664062 145.050781 189.582031 142.863281 193.066406 142.007812 C 194.960938 141.535156 196.214844 142.242188 197.09375 143.605469 C 197.308594 143.945312 197.550781 144.972656 197.675781 145.554688 C 197.914062 146.300781 198.148438 147.046875 198.382812 147.792969 C 199.644531 151.835938 200.683594 155.9375 201.898438 159.988281 C 205.292969 171.308594 209.96875 182.164062 212.746094 193.667969 C 213.46875 196.660156 214.007812 200.449219 213.589844 203.910156 C 213.257812 206.640625 212.339844 209.171875 210.664062 211.175781 C 208.433594 213.847656 203.742188 215.066406 200.539062 215.699219 C 191.613281 217.492188 181.324219 217.871094 172.5 215.640625 C 168.796875 214.707031 164.296875 211.871094 162.558594 208.339844 C 160.683594 204.527344 161.777344 200.8125 162.902344 197.003906 C 164.359375 192.082031 166.078125 187.246094 167.460938 182.3125 C 170.398438 171.808594 171.664062 160.714844 172.367188 149.863281 C 172.492188 147.90625 174.183594 146.417969 176.136719 146.550781 C 178.09375 146.675781 179.578125 148.363281 179.449219 150.320312 C 179.433594 150.570312 179.417969 150.8125 179.402344 151.0625 Z M 179.402344 151.0625 " fill-opacity="1" fill-rule="evenodd"/><g clip-path="url(#c0d1e286da)"><g clip-path="url(#2456e156ea)"><path fill="#f6c385" d="M 168.707031 167.160156 C 167.183594 168.390625 164.949219 168.152344 163.714844 166.628906 C 162.484375 165.105469 162.722656 162.871094 164.246094 161.640625 C 168.554688 158.15625 173.574219 157.609375 178.757812 158.144531 C 182.929688 158.570312 187.203125 159.753906 191.070312 159.914062 C 197.710938 160.183594 203.53125 156.699219 208.25 152.316406 C 209.6875 150.984375 211.933594 151.066406 213.265625 152.507812 C 214.601562 153.941406 214.515625 156.1875 213.082031 157.519531 C 206.992188 163.175781 199.351562 167.347656 190.785156 167.011719 C 186.777344 166.847656 182.351562 165.648438 178.03125 165.203125 C 174.722656 164.863281 171.457031 164.941406 168.707031 167.160156 Z M 168.707031 167.160156 " fill-opacity="1" fill-rule="evenodd"/></g></g><g clip-path="url(#e851ad8ec9)"><path fill="#ef716f" d="M 119.304688 159.410156 C 118.449219 152.398438 118.855469 145.648438 119.175781 138.617188 C 119.589844 129.582031 120.039062 120.542969 121.730469 111.636719 C 124.054688 99.363281 128.207031 87.875 136.441406 78.292969 C 140.695312 73.351562 146.335938 69.003906 151.828125 65.570312 C 162.597656 58.824219 176.160156 55.449219 188.871094 57.398438 C 212.425781 61.019531 234.464844 78.996094 242.941406 101.234375 C 247.460938 113.09375 250.054688 125.894531 252.800781 138.277344 C 253.011719 139.214844 253.195312 140.15625 253.410156 141.09375 C 253.78125 142.710938 254.882812 146.238281 254.839844 148.914062 C 254.804688 150.996094 254.132812 152.714844 252.996094 153.839844 C 251.371094 155.445312 248.703125 156.367188 246.554688 156.984375 C 242.695312 158.089844 238.617188 158.621094 234.664062 159.273438 C 217.375 162.15625 199.75 159.605469 182.359375 161.136719 C 176.34375 161.660156 170.21875 161.742188 164.234375 162.457031 C 151.902344 163.917969 134.558594 164.976562 122.125 162.457031 C 120.625 162.152344 119.488281 160.925781 119.304688 159.410156 Z M 119.304688 159.410156 " fill-opacity="1" fill-rule="evenodd"/></g><g clip-path="url(#b31fac332d)"><g clip-path="url(#49e02ecada)"><path fill="#94ad58" d="M 231.578125 53.84375 C 231.847656 53.253906 232.117188 52.660156 232.386719 52.070312 C 233.203125 50.292969 235.3125 49.507812 237.09375 50.320312 C 238.875 51.136719 239.65625 53.242188 238.84375 55.027344 C 237.285156 58.433594 235.71875 61.835938 234.402344 65.335938 C 232.339844 70.84375 230.359375 77.414062 227.398438 83.242188 C 224.101562 89.710938 219.601562 95.253906 212.859375 98.023438 C 201.316406 102.769531 186.953125 97.464844 184.292969 84.09375 C 183.542969 80.328125 184.082031 75.613281 185.539062 70.902344 C 187.625 64.160156 191.554688 57.445312 195.472656 53.722656 C 196.890625 52.375 199.140625 52.425781 200.488281 53.847656 C 201.078125 54.464844 201.398438 55.246094 201.457031 56.035156 Z M 198.285156 163.976562 C 198.308594 164.921875 197.957031 165.875 197.230469 166.59375 C 195.835938 167.96875 193.585938 167.949219 192.210938 166.558594 C 187.488281 161.769531 185.792969 154.527344 186.742188 147.492188 C 187.671875 140.582031 191.140625 133.972656 196.277344 130.242188 C 205.90625 123.253906 218.421875 129.941406 222.097656 139.714844 C 223.484375 143.398438 224.167969 147.148438 224.433594 151.0625 C 224.753906 155.707031 224.160156 160.738281 222.132812 164.996094 C 221.289062 166.761719 219.167969 167.515625 217.398438 166.671875 C 216.152344 166.078125 215.410156 164.84375 215.378906 163.554688 Z M 148.5625 63.589844 C 147.457031 62.683594 146.964844 61.15625 147.4375 59.722656 C 148.054688 57.863281 150.0625 56.851562 151.921875 57.464844 C 155.945312 58.796875 160.25 60.222656 163.238281 63.441406 C 174.421875 75.492188 168.71875 93.238281 157.503906 102.882812 C 153.851562 106.027344 149.496094 109.425781 144.464844 109.960938 C 138.726562 110.570312 133.347656 108.632812 128.429688 105.808594 C 124.832031 103.746094 121.5 101.410156 119.183594 97.882812 C 118.109375 96.246094 118.5625 94.039062 120.203125 92.964844 C 121.527344 92.097656 123.226562 92.226562 124.394531 93.183594 Z M 126.085938 166.605469 C 125.601562 167.992188 124.285156 168.984375 122.734375 168.984375 C 120.773438 168.992188 119.183594 167.398438 119.183594 165.441406 C 119.179688 159.570312 120.171875 154.5 122.554688 149.082031 C 123.960938 145.886719 125.96875 142.683594 128.320312 140.089844 C 130.292969 137.90625 132.46875 136.003906 135.113281 134.679688 C 137.070312 133.699219 139.203125 133.0625 141.351562 132.6875 C 149.25 131.308594 154.875 135.230469 158.285156 142.140625 C 162.316406 150.324219 161.878906 159.386719 158.964844 167.855469 C 158.328125 169.710938 156.304688 170.695312 154.453125 170.0625 C 153.878906 169.859375 153.390625 169.53125 153.003906 169.117188 C 148.566406 169.636719 144.167969 168.632812 139.761719 168.082031 C 135.214844 167.507812 130.644531 167.105469 126.085938 166.605469 Z M 228.40625 96.167969 C 230.644531 95.105469 238.375 92.28125 239.492188 92.03125 C 241.734375 91.519531 244.191406 91.140625 246.488281 91.488281 C 258.589844 93.339844 262.8125 105.726562 261.683594 116.292969 C 261.023438 122.445312 257.035156 129.398438 251.910156 132.792969 C 247.4375 135.753906 241.046875 136.503906 235.890625 135.945312 C 226.246094 134.910156 219.699219 127.257812 217.933594 118.671875 C 216.152344 110 219.226562 100.550781 228.40625 96.167969 Z M 171.902344 105.40625 C 176.519531 105.738281 180.421875 109.097656 181.984375 113.480469 C 183.789062 118.546875 183.167969 125.859375 180.070312 130.960938 C 177.734375 134.808594 174.105469 137.445312 169.296875 137.570312 C 164.355469 137.699219 159.949219 133.738281 158.074219 129.53125 C 156.207031 125.324219 156.085938 119.480469 157.878906 114.628906 C 159.851562 109.304688 163.996094 105.238281 170.089844 104.988281 C 170.742188 104.964844 171.363281 105.117188 171.902344 105.40625 Z M 171.902344 105.40625 " fill-opacity="1" fill-rule="evenodd"/></g></g><path fill="#94ad58" d="M 65.292969 190.523438 C 66.101562 189.9375 66.832031 189.1875 67.585938 188.480469 C 69.03125 187.113281 70.539062 185.867188 72.367188 185.34375 C 73.359375 185.058594 74.03125 185.429688 74.515625 186.164062 C 74.636719 186.347656 74.777344 186.910156 74.855469 187.226562 C 74.992188 187.632812 75.125 188.042969 75.261719 188.445312 C 75.988281 190.648438 76.601562 192.890625 77.304688 195.097656 C 79.269531 201.269531 81.90625 207.164062 83.546875 213.445312 C 83.976562 215.078125 84.320312 217.152344 84.152344 219.058594 C 84.019531 220.5625 83.570312 221.96875 82.71875 223.09375 C 81.582031 224.59375 79.125 225.335938 77.445312 225.730469 C 72.761719 226.847656 67.335938 227.207031 62.640625 226.113281 C 60.675781 225.65625 58.257812 224.164062 57.285156 222.246094 C 56.234375 220.179688 56.753906 218.121094 57.292969 216.015625 C 57.984375 213.285156 58.816406 210.605469 59.472656 207.871094 C 60.859375 202.058594 61.355469 195.941406 61.558594 189.96875 C 61.597656 188.890625 62.464844 188.050781 63.5 188.09375 C 64.535156 188.132812 65.34375 189.039062 65.308594 190.113281 C 65.300781 190.253906 65.296875 190.386719 65.292969 190.523438 Z M 65.292969 190.523438 " fill-opacity="1" fill-rule="evenodd"/><g clip-path="url(#863e533738)"><g clip-path="url(#f35a387278)"><g clip-path="url(#563ac458c9)"><path fill="#f6c385" d="M 59.894531 199.527344 C 59.109375 200.226562 57.925781 200.128906 57.253906 199.308594 C 56.578125 198.492188 56.671875 197.257812 57.457031 196.558594 C 59.675781 194.582031 62.316406 194.207031 65.0625 194.425781 C 67.269531 194.597656 69.542969 195.183594 71.589844 195.214844 C 75.097656 195.265625 78.113281 193.265625 80.539062 190.785156 C 81.277344 190.03125 82.464844 190.046875 83.191406 190.816406 C 83.914062 191.585938 83.90625 192.820312 83.167969 193.574219 C 80.042969 196.773438 76.074219 199.179688 71.546875 199.117188 C 69.429688 199.089844 67.074219 198.496094 64.785156 198.3125 C 63.035156 198.175781 61.3125 198.265625 59.894531 199.527344 Z M 59.894531 199.527344 " fill-opacity="1" fill-rule="evenodd"/></g></g></g><path fill="#ffbbbb" d="M 32.675781 195.652344 C 31.890625 195.472656 28.53125 196.214844 43.878906 149.699219 C 46.609375 141.433594 54.148438 128.976562 65.234375 126.535156 C 84.640625 122.253906 95.625 150.957031 99.894531 163.257812 C 102.171875 169.8125 110.300781 192.101562 107.769531 193.714844 C 105.972656 194.855469 97.082031 194.757812 94.988281 195.085938 C 85.835938 196.515625 76.550781 194.957031 67.355469 195.644531 C 64.175781 195.875 60.941406 195.867188 57.777344 196.207031 C 51.25 196.902344 39.21875 197.148438 32.675781 195.652344 Z M 32.675781 195.652344 " fill-opacity="1" fill-rule="evenodd"/><g clip-path="url(#9a347be189)"><g clip-path="url(#e0d65dc495)"><g clip-path="url(#725b59da05)"><path fill="#ffffff" d="M 50.480469 143.425781 C 50.921875 141.933594 52.492188 141.089844 53.984375 141.527344 C 55.476562 141.976562 56.324219 143.546875 55.878906 145.039062 C 55.472656 146.398438 54.992188 147.742188 54.617188 149.117188 C 54.210938 150.617188 52.660156 151.507812 51.160156 151.097656 C 49.660156 150.6875 48.773438 149.140625 49.179688 147.636719 C 49.566406 146.222656 50.058594 144.835938 50.480469 143.425781 Z M 48.488281 160.046875 C 48.835938 158.53125 50.347656 157.585938 51.867188 157.929688 C 53.382812 158.273438 54.332031 159.792969 53.984375 161.308594 C 53.730469 162.402344 53.453125 163.507812 53.269531 164.621094 C 53.015625 166.152344 51.5625 167.1875 50.027344 166.9375 C 48.496094 166.683594 47.453125 165.230469 47.707031 163.699219 C 47.910156 162.472656 48.210938 161.253906 48.488281 160.046875 Z M 60.550781 163.875 C 60.605469 162.320312 61.914062 161.105469 63.46875 161.160156 C 65.019531 161.21875 66.238281 162.519531 66.183594 164.078125 C 66.144531 165.136719 65.992188 166.226562 66.003906 167.285156 C 66.015625 168.84375 64.765625 170.113281 63.210938 170.132812 C 61.65625 170.144531 60.382812 168.894531 60.367188 167.335938 C 60.355469 166.191406 60.507812 165.023438 60.550781 163.875 Z M 66.8125 175.1875 C 66.863281 173.628906 68.164062 172.402344 69.71875 172.457031 C 71.273438 172.503906 72.496094 173.808594 72.449219 175.359375 C 72.40625 176.746094 72.292969 178.125 72.304688 179.511719 C 72.3125 181.066406 71.0625 182.339844 69.503906 182.351562 C 67.949219 182.359375 66.679688 181.109375 66.667969 179.550781 C 66.65625 178.09375 66.769531 176.636719 66.8125 175.1875 Z M 50.210938 179.785156 C 50.328125 178.238281 51.679688 177.070312 53.230469 177.183594 C 54.78125 177.304688 55.945312 178.652344 55.832031 180.207031 C 55.722656 181.652344 55.683594 183.136719 55.441406 184.566406 C 55.179688 186.097656 53.722656 187.128906 52.1875 186.867188 C 50.65625 186.605469 49.621094 185.148438 49.886719 183.613281 C 50.097656 182.359375 50.117188 181.050781 50.210938 179.785156 Z M 39.253906 178.113281 C 39.714844 176.625 41.292969 175.792969 42.78125 176.25 C 44.265625 176.710938 45.101562 178.289062 44.640625 179.777344 C 44.195312 181.222656 43.730469 182.644531 43.210938 184.066406 C 42.679688 185.527344 41.058594 186.277344 39.597656 185.746094 C 38.136719 185.210938 37.382812 183.59375 37.917969 182.132812 C 38.402344 180.800781 38.835938 179.460938 39.253906 178.113281 Z M 80.285156 177.851562 C 80.160156 176.300781 81.316406 174.9375 82.863281 174.8125 C 84.414062 174.6875 85.777344 175.839844 85.902344 177.394531 C 85.976562 178.261719 86.054688 179.125 86.238281 179.972656 C 86.5625 181.496094 85.59375 182.996094 84.074219 183.320312 C 82.550781 183.648438 81.054688 182.679688 80.726562 181.15625 C 80.492188 180.0625 80.378906 178.964844 80.285156 177.851562 Z M 91.675781 178.921875 C 91.054688 177.5 91.707031 175.835938 93.132812 175.214844 C 94.558594 174.59375 96.222656 175.246094 96.84375 176.671875 C 97.28125 177.683594 97.65625 178.71875 98.019531 179.761719 C 98.53125 181.230469 97.753906 182.835938 96.285156 183.351562 C 94.816406 183.863281 93.210938 183.082031 92.695312 181.613281 C 92.378906 180.707031 92.058594 179.808594 91.675781 178.921875 Z M 81.535156 157.949219 C 81.132812 156.441406 82.027344 154.898438 83.527344 154.492188 C 85.03125 154.089844 86.578125 154.980469 86.980469 156.484375 C 87.285156 157.625 87.628906 158.757812 87.9375 159.890625 C 88.34375 161.390625 87.457031 162.941406 85.957031 163.347656 C 84.457031 163.757812 82.90625 162.871094 82.5 161.367188 C 82.1875 160.226562 81.84375 159.089844 81.535156 157.949219 Z M 73.007812 162.40625 C 72.777344 160.875 73.839844 159.433594 75.378906 159.207031 C 76.917969 158.976562 78.351562 160.039062 78.582031 161.582031 C 78.707031 162.414062 78.796875 163.265625 78.964844 164.089844 C 79.269531 165.613281 78.277344 167.097656 76.753906 167.410156 C 75.226562 167.710938 73.742188 166.71875 73.4375 165.195312 C 73.253906 164.273438 73.144531 163.335938 73.007812 162.40625 Z M 85.011719 142.480469 C 84.398438 141.046875 85.058594 139.386719 86.488281 138.777344 C 87.917969 138.164062 89.578125 138.828125 90.191406 140.257812 C 90.746094 141.554688 91.414062 142.855469 91.863281 144.191406 C 92.351562 145.667969 91.554688 147.269531 90.078125 147.761719 C 88.601562 148.25 87.003906 147.453125 86.515625 145.976562 C 86.117188 144.78125 85.503906 143.632812 85.011719 142.480469 Z M 74.527344 143.273438 C 74.230469 141.75 75.226562 140.269531 76.753906 139.972656 C 78.28125 139.667969 79.761719 140.667969 80.058594 142.195312 C 80.277344 143.320312 80.601562 144.46875 80.710938 145.609375 C 80.859375 147.15625 79.71875 148.535156 78.171875 148.675781 C 76.621094 148.824219 75.246094 147.691406 75.097656 146.144531 C 75.007812 145.179688 74.710938 144.21875 74.527344 143.273438 Z M 63.25 146.726562 C 63.164062 145.175781 64.351562 143.84375 65.90625 143.753906 C 67.457031 143.664062 68.789062 144.851562 68.878906 146.40625 C 68.9375 147.441406 68.988281 148.46875 69.0625 149.503906 C 69.175781 151.054688 68.007812 152.40625 66.457031 152.519531 C 64.902344 152.625 63.554688 151.460938 63.441406 149.90625 C 63.367188 148.847656 63.3125 147.785156 63.25 146.726562 Z M 64.464844 131.09375 C 64.4375 129.539062 65.675781 128.25 67.230469 128.222656 C 68.785156 128.191406 70.070312 129.429688 70.101562 130.984375 C 70.121094 132.050781 70.1875 133.121094 70.179688 134.191406 C 70.160156 135.742188 68.886719 136.992188 67.332031 136.980469 C 65.777344 136.960938 64.527344 135.683594 64.542969 134.132812 C 64.550781 133.121094 64.484375 132.105469 64.464844 131.09375 Z M 59.238281 188.746094 C 58.894531 187.230469 59.851562 185.71875 61.367188 185.378906 C 62.886719 185.035156 64.394531 185.992188 64.734375 187.507812 C 64.820312 187.890625 64.898438 188.269531 64.988281 188.648438 C 65.34375 190.167969 64.40625 191.683594 62.890625 192.039062 C 61.378906 192.394531 59.859375 191.457031 59.503906 189.941406 C 59.410156 189.546875 59.324219 189.144531 59.238281 188.746094 Z M 86.734375 189.804688 C 86.371094 188.292969 87.304688 186.769531 88.816406 186.40625 C 90.328125 186.046875 91.851562 186.972656 92.214844 188.488281 C 92.308594 188.882812 92.382812 189.296875 92.535156 189.671875 C 93.117188 191.117188 92.414062 192.757812 90.972656 193.339844 C 89.53125 193.917969 87.886719 193.222656 87.308594 191.777344 C 87.050781 191.140625 86.894531 190.46875 86.734375 189.804688 Z M 93.203125 166.878906 C 92.519531 165.480469 93.101562 163.792969 94.496094 163.109375 C 95.894531 162.425781 97.582031 163.007812 98.265625 164.40625 C 98.644531 165.179688 99.070312 165.964844 99.367188 166.777344 C 99.902344 168.242188 99.148438 169.859375 97.6875 170.394531 C 96.226562 170.929688 94.609375 170.175781 94.074219 168.71875 C 93.84375 168.085938 93.496094 167.480469 93.203125 166.878906 Z M 93.203125 166.878906 " fill-opacity="1" fill-rule="evenodd"/></g></g></g></svg>