<svg xmlns="http://www.w3.org/2000/svg" xmlns:xlink="http://www.w3.org/1999/xlink" width="378" zoomAndPan="magnify" viewBox="0 0 282.96 283.499989" height="378" preserveAspectRatio="xMidYMid meet" version="1.0"><defs><clipPath id="5d45428d18"><path d="M 0.230469 0 L 282.691406 0 L 282.691406 283 L 0.230469 283 Z M 0.230469 0 " clip-rule="nonzero"/></clipPath><clipPath id="8d3cf8875f"><path d="M 104 50 L 180 50 L 180 247 L 104 247 Z M 104 50 " clip-rule="nonzero"/></clipPath><clipPath id="9099520db6"><path d="M 122.269531 160.273438 C 112.828125 151.539062 103.976562 142.066406 101.582031 128.757812 C 100.492188 122.671875 101.714844 111.984375 110.398438 114.390625 C 111.496094 114.695312 112.515625 115.195312 113.460938 115.832031 C 118.171875 118.984375 120.714844 125.140625 122.25 130.367188 C 123.476562 134.550781 124.070312 138.78125 124.453125 143.039062 C 126.058594 138.65625 128.359375 134.671875 131.019531 130.84375 C 136.0625 123.609375 142.445312 116.984375 147.347656 109.058594 C 158.460938 91.089844 155.378906 70.738281 144.007812 53.722656 C 140.707031 48.777344 137.125 41.394531 132.0625 37.957031 C 130.664062 37.003906 130.300781 35.105469 131.25 33.707031 C 132.203125 32.3125 134.101562 31.949219 135.5 32.902344 C 141.15625 36.742188 145.398438 44.804688 149.089844 50.324219 C 153.082031 56.292969 156.136719 62.640625 158.054688 69.15625 C 158.484375 66.679688 159.046875 64.21875 159.804688 61.765625 C 161.585938 55.992188 164.496094 49.1875 169.808594 45.648438 C 170.867188 44.945312 172.019531 44.375 173.242188 44.035156 C 182.980469 41.269531 184.207031 53.015625 182.910156 59.71875 C 180.078125 74.335938 170.140625 84.847656 159.523438 94.554688 C 158.375 100.578125 156.097656 106.539062 152.546875 112.273438 C 147.585938 120.296875 141.144531 127.015625 136.042969 134.339844 C 131.335938 141.089844 127.820312 148.390625 128.234375 158.039062 C 128.605469 166.648438 133.019531 174.105469 138.257812 181.191406 C 143.929688 188.875 150.601562 196.125 155.035156 203.6875 C 155.464844 204.421875 155.878906 205.167969 156.269531 205.90625 C 155.3125 199.671875 154.382812 193.488281 154.816406 187.09375 C 155.179688 181.65625 156.328125 175.09375 160.242188 170.992188 C 161.027344 170.171875 161.917969 169.460938 162.921875 168.925781 C 170.878906 164.6875 174.390625 174.863281 174.640625 181.042969 C 175.199219 194.964844 168.191406 206.394531 160.597656 217.257812 C 165.421875 236.863281 157.171875 256.546875 144.582031 272.4375 C 143.539062 273.757812 141.613281 273.980469 140.292969 272.933594 C 138.964844 271.882812 138.742188 269.960938 139.789062 268.636719 C 142.90625 264.710938 145.75 260.527344 148.152344 256.164062 C 137.003906 248.273438 126.050781 239.730469 121.800781 226.011719 C 119.96875 220.105469 119.875 209.34375 128.789062 210.675781 C 129.910156 210.84375 130.996094 211.21875 132.003906 211.726562 C 137.070312 214.285156 140.339844 220.082031 142.503906 225.082031 C 145.757812 232.59375 146.796875 240.539062 148.441406 248.464844 C 148.816406 250.25 149.007812 252.085938 149.359375 253.878906 C 156.804688 239.203125 159.058594 222.648438 149.753906 206.777344 C 145.425781 199.394531 138.878906 192.332031 133.335938 184.828125 C 127.761719 177.285156 123.207031 169.296875 122.269531 160.273438 Z M 122.269531 160.273438 " clip-rule="evenodd"/></clipPath></defs><g clip-path="url(#5d45428d18)"><path fill="#ffffff" d="M 0.230469 0 L 283.230469 0 L 283.230469 283 L 0.230469 283 Z M 0.230469 0 " fill-opacity="1" fill-rule="nonzero"/><path fill="#ffffff" d="M 0.230469 0 L 283.230469 0 L 283.230469 283 L 0.230469 283 Z M 0.230469 0 " fill-opacity="1" fill-rule="nonzero"/></g><path fill="#94ad58" d="M 122.269531 160.273438 C 112.828125 151.539062 103.976562 142.066406 101.582031 128.757812 C 100.492188 122.671875 101.714844 111.984375 110.398438 114.390625 C 111.496094 114.695312 112.515625 115.195312 113.460938 115.832031 C 118.171875 118.984375 120.714844 125.140625 122.25 130.367188 C 123.476562 134.550781 124.070312 138.78125 124.453125 143.039062 C 126.058594 138.65625 128.359375 134.671875 131.019531 130.84375 C 136.0625 123.609375 142.445312 116.984375 147.347656 109.058594 C 158.460938 91.089844 155.378906 70.738281 144.007812 53.722656 C 140.707031 48.777344 137.125 41.394531 132.0625 37.957031 C 130.664062 37.003906 130.300781 35.105469 131.25 33.707031 C 132.203125 32.3125 134.101562 31.949219 135.5 32.902344 C 141.15625 36.742188 145.398438 44.804688 149.089844 50.324219 C 153.082031 56.292969 156.136719 62.640625 158.054688 69.15625 C 158.484375 66.679688 159.046875 64.21875 159.804688 61.765625 C 161.585938 55.992188 164.496094 49.1875 169.808594 45.648438 C 170.863281 44.945312 172.019531 44.375 173.242188 44.035156 C 182.980469 41.269531 184.207031 53.015625 182.910156 59.71875 C 180.078125 74.335938 170.140625 84.847656 159.523438 94.554688 C 158.375 100.578125 156.097656 106.539062 152.546875 112.273438 C 147.585938 120.296875 141.144531 127.015625 136.042969 134.339844 C 131.335938 141.089844 127.820312 148.390625 128.234375 158.039062 C 128.605469 166.648438 133.019531 174.105469 138.257812 181.191406 C 143.929688 188.875 150.601562 196.125 155.035156 203.6875 C 155.464844 204.421875 155.878906 205.167969 156.269531 205.90625 C 155.3125 199.671875 154.382812 193.488281 154.816406 187.09375 C 155.179688 181.65625 156.328125 175.09375 160.242188 170.992188 C 161.027344 170.171875 161.917969 169.460938 162.921875 168.925781 C 170.878906 164.6875 174.390625 174.863281 174.640625 181.042969 C 175.199219 194.964844 168.191406 206.394531 160.597656 217.257812 C 165.421875 236.863281 157.171875 256.546875 144.582031 272.4375 C 143.539062 273.757812 141.613281 273.980469 140.292969 272.933594 C 138.964844 271.882812 138.742188 269.960938 139.789062 268.636719 C 142.90625 264.710938 145.75 260.527344 148.152344 256.164062 C 137.003906 248.273438 126.050781 239.730469 121.800781 226.011719 C 119.96875 220.105469 119.875 209.34375 128.789062 210.675781 C 129.910156 210.84375 130.996094 211.21875 132.003906 211.726562 C 137.070312 214.285156 140.339844 220.082031 142.503906 225.082031 C 145.757812 232.59375 146.796875 240.539062 148.441406 248.460938 C 148.816406 250.25 149.007812 252.085938 149.359375 253.878906 C 156.804688 239.203125 159.058594 222.648438 149.753906 206.777344 C 145.425781 199.394531 138.878906 192.332031 133.335938 184.828125 C 127.761719 177.285156 123.207031 169.296875 122.269531 160.273438 Z M 122.269531 160.273438 " fill-opacity="1" fill-rule="evenodd"/><g clip-path="url(#8d3cf8875f)"><g clip-path="url(#9099520db6)"><path fill="#ffffff" d="M 158.3125 181.199219 C 158.332031 180.507812 158.910156 179.953125 159.609375 179.964844 C 160.304688 179.976562 160.863281 180.558594 160.84375 181.257812 C 160.8125 182.632812 160.507812 184.035156 160.574219 185.402344 C 160.613281 186.101562 160.074219 186.695312 159.378906 186.734375 C 158.679688 186.769531 158.082031 186.234375 158.046875 185.535156 C 157.976562 184.101562 158.277344 182.636719 158.3125 181.199219 Z M 164.5 174.699219 C 164.480469 174 165.035156 173.417969 165.726562 173.398438 C 166.429688 173.378906 167.015625 173.933594 167.027344 174.632812 C 167.082031 176.492188 167.253906 178.527344 167.023438 180.386719 C 166.929688 181.082031 166.296875 181.574219 165.601562 181.488281 C 164.910156 181.398438 164.414062 180.761719 164.507812 180.070312 C 164.726562 178.335938 164.539062 176.441406 164.5 174.699219 Z M 163.722656 188.964844 C 163.816406 188.273438 164.453125 187.785156 165.148438 187.878906 C 165.839844 187.96875 166.328125 188.609375 166.230469 189.300781 C 166.019531 190.914062 165.867188 192.507812 165.8125 194.132812 C 165.789062 194.832031 165.207031 195.378906 164.507812 195.359375 C 163.808594 195.332031 163.261719 194.746094 163.28125 194.046875 C 163.339844 192.339844 163.492188 190.660156 163.722656 188.964844 Z M 169.640625 182.070312 C 169.636719 181.371094 170.195312 180.796875 170.894531 180.789062 C 171.59375 180.785156 172.167969 181.351562 172.175781 182.050781 C 172.195312 184.394531 172.0625 186.808594 171.378906 189.066406 C 171.171875 189.738281 170.464844 190.113281 169.800781 189.910156 C 169.128906 189.710938 168.75 189 168.957031 188.332031 C 169.5625 186.3125 169.660156 184.160156 169.640625 182.070312 Z M 158.039062 192.105469 C 158.152344 191.414062 158.804688 190.945312 159.5 191.058594 C 160.183594 191.175781 160.652344 191.828125 160.542969 192.515625 C 160.441406 193.125 160.191406 193.960938 160.035156 194.800781 C 159.929688 195.355469 159.808594 195.914062 159.972656 196.316406 C 160.238281 196.964844 159.933594 197.703125 159.289062 197.972656 C 158.640625 198.238281 157.902344 197.933594 157.632812 197.289062 C 157.359375 196.632812 157.320312 195.777344 157.453125 194.871094 C 157.59375 193.882812 157.921875 192.828125 158.039062 192.105469 Z M 167.226562 194.992188 C 167.425781 194.316406 168.125 193.929688 168.796875 194.125 C 169.46875 194.316406 169.859375 195.023438 169.660156 195.695312 C 169.167969 197.417969 168.863281 199.246094 168.25 200.929688 C 168.003906 201.582031 167.277344 201.925781 166.621094 201.683594 C 165.964844 201.445312 165.628906 200.710938 165.867188 200.058594 C 166.460938 198.429688 166.746094 196.660156 167.226562 194.992188 Z M 161.722656 202.046875 C 161.847656 201.351562 162.507812 200.902344 163.195312 201.027344 C 163.886719 201.152344 164.34375 201.8125 164.210938 202.5 C 163.902344 204.210938 163.753906 205.945312 163.417969 207.648438 C 163.28125 208.332031 162.613281 208.78125 161.925781 208.644531 C 161.242188 208.511719 160.800781 207.839844 160.929688 207.152344 C 161.269531 205.464844 161.40625 203.742188 161.722656 202.046875 Z M 123.160156 221.273438 C 122.820312 220.667969 123.039062 219.894531 123.652344 219.558594 C 124.265625 219.214844 125.039062 219.441406 125.375 220.054688 C 125.917969 221.035156 126.476562 221.972656 127.089844 222.917969 C 127.46875 223.503906 127.304688 224.289062 126.714844 224.667969 C 126.128906 225.050781 125.34375 224.882812 124.960938 224.296875 C 124.320312 223.308594 123.726562 222.308594 123.160156 221.273438 Z M 125.921875 215.269531 C 125.601562 214.648438 125.84375 213.882812 126.472656 213.566406 C 127.089844 213.242188 127.855469 213.496094 128.171875 214.113281 C 128.90625 215.539062 129.554688 217.019531 130.332031 218.417969 C 130.667969 219.03125 130.449219 219.804688 129.835938 220.140625 C 129.230469 220.476562 128.457031 220.257812 128.113281 219.644531 C 127.324219 218.226562 126.664062 216.722656 125.921875 215.269531 Z M 132.996094 219.480469 C 132.714844 218.847656 132.996094 218.09375 133.632812 217.804688 C 134.269531 217.519531 135.023438 217.804688 135.308594 218.4375 C 136.097656 220.199219 137.203125 222.085938 137.644531 223.972656 C 137.808594 224.652344 137.378906 225.339844 136.699219 225.496094 C 136.019531 225.65625 135.339844 225.234375 135.175781 224.554688 C 134.765625 222.820312 133.730469 221.097656 132.996094 219.480469 Z M 131.289062 228.574219 C 130.847656 228.03125 130.933594 227.234375 131.472656 226.792969 C 132.015625 226.355469 132.8125 226.433594 133.253906 226.984375 C 134.074219 227.992188 134.71875 229.101562 135.367188 230.230469 C 135.714844 230.828125 135.503906 231.609375 134.898438 231.957031 C 134.292969 232.308594 133.519531 232.097656 133.167969 231.488281 C 132.589844 230.480469 132.019531 229.484375 131.289062 228.574219 Z M 126.78125 231.371094 C 126.339844 230.828125 126.425781 230.03125 126.964844 229.589844 C 127.515625 229.148438 128.3125 229.234375 128.746094 229.773438 C 130.066406 231.402344 131.128906 233.230469 132.582031 234.75 C 133.0625 235.257812 133.042969 236.0625 132.535156 236.542969 C 132.027344 237.027344 131.230469 237.007812 130.746094 236.5 C 129.25 234.933594 128.140625 233.046875 126.78125 231.371094 Z M 137.492188 230.75 C 137.1875 230.125 137.453125 229.363281 138.078125 229.0625 C 138.710938 228.757812 139.472656 229.023438 139.773438 229.648438 C 140.355469 230.84375 140.898438 232.148438 141.285156 233.421875 C 141.492188 234.089844 141.113281 234.800781 140.449219 235.007812 C 139.773438 235.210938 139.070312 234.835938 138.863281 234.164062 C 138.507812 233.015625 138.019531 231.832031 137.492188 230.75 Z M 137.136719 240.667969 C 136.6875 240.132812 136.753906 239.335938 137.285156 238.878906 C 137.820312 238.433594 138.621094 238.496094 139.070312 239.03125 C 140.574219 240.8125 141.945312 242.753906 143.332031 244.628906 C 143.746094 245.1875 143.628906 245.988281 143.0625 246.402344 C 142.5 246.820312 141.707031 246.695312 141.292969 246.132812 C 139.941406 244.296875 138.601562 242.40625 137.136719 240.667969 Z M 105.078125 131.210938 C 104.8125 130.566406 105.125 129.824219 105.769531 129.5625 C 106.417969 129.296875 107.15625 129.609375 107.421875 130.253906 C 107.78125 131.140625 108.207031 132.011719 108.613281 132.875 C 108.910156 133.507812 108.640625 134.261719 108.007812 134.558594 C 107.375 134.855469 106.621094 134.582031 106.324219 133.957031 C 105.894531 133.046875 105.453125 132.140625 105.078125 131.210938 Z M 106.34375 122.078125 C 106.066406 121.433594 106.363281 120.6875 107.011719 120.414062 C 107.652344 120.140625 108.398438 120.4375 108.675781 121.082031 C 108.929688 121.691406 109.175781 122.308594 109.492188 122.890625 C 109.828125 123.503906 109.605469 124.277344 108.992188 124.613281 C 108.375 124.949219 107.613281 124.726562 107.273438 124.109375 C 106.910156 123.457031 106.636719 122.757812 106.34375 122.078125 Z M 112.097656 122.9375 C 111.820312 122.296875 112.113281 121.550781 112.753906 121.265625 C 113.398438 120.988281 114.144531 121.28125 114.421875 121.925781 C 114.769531 122.71875 115.175781 123.496094 115.425781 124.328125 C 115.621094 125.003906 115.246094 125.707031 114.574219 125.90625 C 113.90625 126.109375 113.195312 125.726562 112.996094 125.0625 C 112.773438 124.324219 112.402344 123.644531 112.097656 122.9375 Z M 111.941406 133.792969 C 111.589844 133.183594 111.796875 132.414062 112.402344 132.054688 C 113.007812 131.707031 113.78125 131.910156 114.132812 132.519531 C 114.957031 133.9375 115.726562 135.382812 116.289062 136.925781 C 116.527344 137.585938 116.183594 138.3125 115.53125 138.550781 C 114.871094 138.789062 114.144531 138.445312 113.90625 137.789062 C 113.398438 136.386719 112.691406 135.078125 111.941406 133.792969 Z M 116.546875 131.90625 C 116.242188 131.269531 116.507812 130.511719 117.140625 130.214844 C 117.773438 129.910156 118.527344 130.183594 118.828125 130.808594 C 119.292969 131.78125 119.824219 132.808594 119.972656 133.882812 C 120.0625 134.578125 119.582031 135.21875 118.890625 135.308594 C 118.195312 135.410156 117.554688 134.921875 117.464844 134.226562 C 117.351562 133.402344 116.894531 132.644531 116.546875 131.90625 Z M 111.964844 143.164062 C 111.550781 142.59375 111.667969 141.804688 112.238281 141.386719 C 112.796875 140.972656 113.589844 141.089844 114.003906 141.65625 C 114.554688 142.398438 115.09375 143.144531 115.695312 143.847656 C 116.144531 144.382812 116.078125 145.1875 115.542969 145.636719 C 115.007812 146.085938 114.210938 146.019531 113.761719 145.492188 C 113.121094 144.738281 112.546875 143.949219 111.964844 143.164062 Z M 170.953125 50.949219 C 171.21875 50.300781 171.964844 49.992188 172.609375 50.253906 C 173.257812 50.527344 173.566406 51.265625 173.304688 51.910156 C 172.941406 52.804688 172.550781 53.679688 172.195312 54.570312 C 171.945312 55.226562 171.207031 55.546875 170.550781 55.289062 C 169.90625 55.035156 169.582031 54.300781 169.839844 53.648438 C 170.195312 52.742188 170.585938 51.851562 170.953125 50.949219 Z M 176.886719 50.847656 C 177.210938 50.230469 177.976562 49.992188 178.597656 50.316406 C 179.21875 50.636719 179.453125 51.410156 179.132812 52.023438 C 178.453125 53.316406 177.878906 54.644531 177.21875 55.945312 C 176.902344 56.5625 176.136719 56.816406 175.507812 56.5 C 174.886719 56.179688 174.636719 55.417969 174.953125 54.796875 C 175.621094 53.488281 176.207031 52.148438 176.886719 50.847656 Z M 167.886719 61.453125 C 168.050781 60.78125 168.738281 60.367188 169.417969 60.53125 C 170.097656 60.695312 170.511719 61.382812 170.347656 62.0625 C 170.039062 63.316406 169.714844 64.71875 169.132812 65.882812 C 168.816406 66.507812 168.050781 66.757812 167.429688 66.441406 C 166.804688 66.132812 166.554688 65.367188 166.871094 64.742188 C 167.371094 63.742188 167.621094 62.53125 167.886719 61.453125 Z M 165.132812 57.890625 C 165.464844 57.269531 166.230469 57.03125 166.851562 57.355469 C 167.46875 57.679688 167.707031 58.445312 167.386719 59.066406 C 166.921875 59.941406 166.328125 60.875 166.058594 61.832031 C 165.867188 62.503906 165.160156 62.894531 164.496094 62.703125 C 163.820312 62.511719 163.433594 61.804688 163.625 61.128906 C 163.941406 60.015625 164.601562 58.914062 165.132812 57.890625 Z M 174.570312 63.566406 C 174.886719 62.945312 175.652344 62.703125 176.273438 63.023438 C 176.894531 63.347656 177.136719 64.113281 176.816406 64.734375 C 176.109375 66.09375 175.546875 67.609375 174.722656 68.90625 C 174.347656 69.5 173.566406 69.667969 172.972656 69.292969 C 172.386719 68.917969 172.207031 68.140625 172.585938 67.546875 C 173.371094 66.3125 173.898438 64.859375 174.570312 63.566406 Z M 164.984375 73.417969 C 165.21875 72.757812 165.945312 72.421875 166.605469 72.660156 C 167.265625 72.898438 167.601562 73.628906 167.363281 74.28125 C 167.082031 75.046875 166.835938 75.832031 166.527344 76.585938 C 166.257812 77.230469 165.515625 77.542969 164.871094 77.273438 C 164.222656 77.007812 163.914062 76.261719 164.183594 75.617188 C 164.480469 74.894531 164.71875 74.152344 164.984375 73.417969 Z M 164.984375 73.417969 " fill-opacity="1" fill-rule="evenodd"/></g></g><path fill="#f08a88" d="M 107.273438 91.121094 L 107.28125 91.234375 C 109.617188 85.261719 119.871094 95.589844 119.628906 94.441406 C 118.910156 91.050781 117.054688 85.144531 119.675781 82.273438 C 123.632812 77.929688 129.511719 84.074219 131.261719 87.804688 C 131.789062 88.933594 132.199219 90.101562 132.839844 91.167969 C 132.910156 91.289062 133.367188 92.105469 133.539062 92.066406 C 133.617188 92.054688 133.710938 90.421875 133.722656 90.292969 C 133.941406 88.304688 134.058594 86.3125 134.546875 84.359375 C 134.71875 83.652344 134.925781 82.945312 135.175781 82.261719 C 135.375 81.707031 135.605469 81.160156 135.847656 80.625 C 136.046875 80.195312 136.25 79.773438 136.480469 79.355469 C 137.207031 78.050781 138.851562 75.820312 141.484375 76.941406 C 144.613281 78.28125 151.34375 104.511719 133.949219 111.363281 C 126.21875 114.398438 101.789062 103.363281 107.273438 91.121094 Z M 164.210938 152.269531 C 165.636719 161.527344 147.132812 164.445312 142.492188 160.964844 C 132.035156 153.140625 141.429688 136.707031 143.78125 136.386719 C 145.761719 136.113281 146.453125 137.921875 146.703125 138.9375 C 146.78125 139.253906 146.84375 139.578125 146.894531 139.910156 C 146.960938 140.3125 147.019531 140.726562 147.054688 141.136719 C 147.09375 141.644531 147.097656 142.160156 147.085938 142.667969 C 147.054688 144.074219 146.761719 145.4375 146.539062 146.816406 C 146.523438 146.902344 146.289062 148.019531 146.339844 148.046875 C 146.445312 148.105469 146.902344 147.636719 146.972656 147.570312 C 147.601562 146.96875 148.097656 146.257812 148.65625 145.597656 C 150.53125 143.40625 155.625 140.351562 157.492188 144.011719 C 158.726562 146.429688 156.382812 150.066406 155.269531 152.214844 C 154.894531 152.949219 163.710938 147.886719 164.183594 152.339844 Z M 100.21875 198.15625 L 100.273438 198.222656 C 99.21875 193.328125 110.355469 195.625 109.703125 194.984375 C 107.761719 193.082031 104.007812 190.035156 104.46875 187.039062 C 105.175781 182.5 111.664062 183.964844 114.414062 185.632812 C 115.238281 186.132812 116.019531 186.722656 116.894531 187.144531 C 116.996094 187.191406 117.640625 187.527344 117.734375 187.429688 C 117.78125 187.382812 117.140625 186.28125 117.09375 186.195312 C 116.367188 184.800781 115.589844 183.449219 115.0625 181.972656 C 114.871094 181.4375 114.699219 180.886719 114.566406 180.335938 C 114.453125 179.886719 114.367188 179.429688 114.296875 178.976562 C 114.238281 178.613281 114.191406 178.242188 114.164062 177.878906 C 114.070312 176.710938 114.175781 174.546875 116.375 174.144531 C 118.988281 173.664062 134.714844 187.84375 126.339844 199.8125 C 122.617188 205.132812 101.9375 208.5 100.21875 198.15625 Z M 140.664062 10.351562 C 153.863281 12.746094 149.152344 39.144531 142.28125 43.796875 C 126.800781 54.28125 108.964844 33.890625 109.628906 30.550781 C 110.191406 27.753906 112.957031 27.652344 114.449219 27.792969 C 114.921875 27.839844 115.386719 27.910156 115.851562 27.992188 C 116.433594 28.089844 117.015625 28.207031 117.582031 28.351562 C 118.296875 28.539062 118.988281 28.769531 119.675781 29.027344 C 121.554688 29.726562 123.269531 30.753906 125.027344 31.707031 C 125.144531 31.765625 126.535156 32.609375 126.601562 32.550781 C 126.726562 32.429688 126.3125 31.59375 126.253906 31.46875 C 125.730469 30.339844 125 29.335938 124.367188 28.261719 C 122.28125 24.71875 120.53125 16.390625 126.359375 15.578125 C 130.207031 15.035156 134.027344 19.90625 136.414062 22.421875 C 137.226562 23.273438 134.507812 8.980469 140.75 10.425781 Z M 140.664062 10.351562 " fill-opacity="1" fill-rule="evenodd"/></svg>