<svg xmlns="http://www.w3.org/2000/svg" xmlns:xlink="http://www.w3.org/1999/xlink" width="378" zoomAndPan="magnify" viewBox="0 0 282.96 283.499989" height="378" preserveAspectRatio="xMidYMid meet" version="1.0"><defs><clipPath id="e1f5fc8fdf"><path d="M 0.230469 0 L 282.691406 0 L 282.691406 283 L 0.230469 283 Z M 0.230469 0 " clip-rule="nonzero"/></clipPath></defs><g clip-path="url(#e1f5fc8fdf)"><path fill="#ffffff" d="M 0.230469 0 L 283.230469 0 L 283.230469 283 L 0.230469 283 Z M 0.230469 0 " fill-opacity="1" fill-rule="nonzero"/><path fill="#ffffff" d="M 0.230469 0 L 283.230469 0 L 283.230469 283 L 0.230469 283 Z M 0.230469 0 " fill-opacity="1" fill-rule="nonzero"/></g><path fill="#fec6e0" d="M 213.167969 48.667969 C 207.582031 43.644531 202.390625 39.886719 196.726562 34.269531 C 196.042969 33.597656 195.320312 31.972656 195.46875 31.023438 C 195.945312 27.933594 197.535156 25.335938 199.777344 23.222656 C 202.757812 20.402344 206.921875 18.464844 210.625 17.304688 C 220.089844 14.339844 231.25 14.132812 240.515625 18.144531 C 242.691406 11.777344 253.9375 11.75 255.027344 20 C 255.191406 21.285156 255.066406 22.625 254.667969 23.863281 C 254.230469 25.210938 253.339844 26.46875 252.363281 27.484375 C 258.753906 36.796875 257.503906 49.734375 254.398438 60.050781 C 253.390625 63.386719 252.230469 67.148438 250.019531 69.910156 C 248.84375 71.367188 247.015625 73.285156 244.941406 73.480469 C 239.570312 73.980469 226.28125 59.703125 221.097656 55.414062 C 218.078125 58.515625 215.296875 61.898438 212.484375 65.171875 C 210.609375 67.34375 207.328125 67.589844 205.15625 65.71875 C 202.980469 63.847656 202.734375 60.5625 204.609375 58.390625 C 207.40625 55.132812 210.1875 51.785156 213.167969 48.667969 Z M 69.695312 57.152344 C 72.683594 60.269531 75.457031 63.617188 78.265625 66.871094 C 80.132812 69.046875 79.894531 72.328125 77.714844 74.199219 C 75.539062 76.070312 72.257812 75.828125 70.386719 73.652344 C 67.566406 70.378906 64.792969 66.996094 61.765625 63.894531 C 56.585938 68.183594 43.296875 82.460938 37.925781 81.960938 C 35.859375 81.769531 34.023438 79.851562 32.855469 78.390625 C 30.636719 75.632812 29.484375 71.867188 28.476562 68.53125 C 25.359375 58.214844 24.121094 45.277344 30.5 35.964844 C 29.53125 34.949219 28.640625 33.691406 28.203125 32.34375 C 27.800781 31.109375 27.679688 29.769531 27.847656 28.480469 C 28.929688 20.230469 40.171875 20.257812 42.359375 26.628906 C 51.625 22.617188 62.78125 22.820312 72.25 25.785156 C 75.945312 26.945312 80.109375 28.882812 83.097656 31.707031 C 85.328125 33.820312 86.925781 36.414062 87.402344 39.507812 C 87.546875 40.453125 86.824219 42.078125 86.148438 42.753906 C 80.480469 48.367188 75.292969 52.125 69.695312 57.152344 Z M 69.695312 57.152344 " fill-opacity="1" fill-rule="evenodd"/><path fill="#94ad58" d="M 138.070312 27.625 C 132.769531 27.882812 127.386719 28.058594 122.101562 27.589844 C 120.472656 27.441406 119.179688 26.167969 119.003906 24.542969 C 118.875 23.382812 117.636719 20.859375 117.308594 18.964844 C 116.960938 16.953125 117.398438 15.285156 118.222656 14.246094 C 118.929688 13.347656 120.386719 12.746094 121.355469 12.414062 C 123.0625 11.824219 124.820312 11.359375 126.609375 11.0625 C 133.246094 9.960938 140.160156 10.195312 146.867188 9.902344 C 151.007812 9.71875 156.609375 9.027344 160.535156 10.695312 C 163.617188 12.007812 164.007812 14.25 163.945312 17.167969 C 163.890625 19.546875 163.460938 22.335938 161.542969 24.054688 C 160.242188 25.222656 158.183594 25.738281 156.523438 25.976562 C 154.226562 26.308594 151.90625 26.53125 149.601562 26.769531 C 148.917969 26.839844 148.242188 26.90625 147.558594 26.96875 C 147.597656 32.105469 147.828125 37.222656 147.945312 42.355469 C 148.019531 45.296875 147.683594 48.316406 148.203125 51.230469 C 148.652344 53.808594 146.929688 56.269531 144.355469 56.726562 C 141.773438 57.183594 139.308594 55.457031 138.855469 52.878906 C 138.257812 49.5 138.546875 45.996094 138.464844 42.582031 C 138.347656 37.59375 138.125 32.617188 138.070312 27.625 Z M 138.070312 27.625 " fill-opacity="1" fill-rule="evenodd"/><path fill="#ffffff" d="M 229.394531 113.710938 C 243.242188 116.664062 252.363281 130.105469 249.859375 144.148438 C 245.578125 168.242188 231.914062 198.613281 212.539062 214.898438 C 203.371094 222.605469 191.566406 226.714844 180.878906 231.789062 C 158.378906 242.46875 128.21875 251.914062 103.140625 243.40625 C 86.28125 237.691406 69.554688 220.476562 60.835938 205.726562 C 55.636719 196.929688 51.832031 187.609375 49.019531 177.785156 C 43.734375 159.382812 40.847656 136.035156 46.308594 117.105469 C 52.371094 96.082031 67.648438 75.230469 85.65625 62.894531 C 111.03125 45.507812 142.960938 42.054688 172.398438 48.070312 C 190.605469 51.785156 210.210938 62.21875 220.152344 78.675781 C 226.972656 89.960938 229.722656 101.886719 229.394531 113.710938 Z M 229.394531 113.710938 " fill-opacity="1" fill-rule="evenodd"/><path fill="#9bc6f3" d="M 85.789062 237.699219 C 59.875 221.273438 41.175781 194.03125 38.226562 163.28125 C 34.9375 128.921875 42.089844 104.542969 52.878906 87.171875 C 69.332031 60.683594 94.5625 50.222656 107 46.070312 C 135.90625 36.421875 168.710938 40.3125 194.269531 51.082031 C 211.921875 58.519531 226.066406 69.277344 233.625 80.808594 C 259.300781 119.988281 258.207031 169.15625 226.902344 211.785156 C 218.183594 223.660156 209.105469 232.429688 199.746094 238.808594 C 203.773438 245.75 207.75 252.746094 211.945312 259.570312 C 214.441406 263.628906 213.175781 268.945312 209.113281 271.441406 C 205.0625 273.9375 199.746094 272.667969 197.25 268.609375 C 192.886719 261.523438 188.761719 254.261719 184.582031 247.0625 C 168.550781 253.765625 151.792969 254.933594 134.570312 253.820312 C 122.917969 253.070312 111.609375 250.25 101.074219 245.746094 C 96.628906 253.308594 91.34375 260.335938 87.046875 268.007812 C 84.71875 272.164062 79.457031 273.644531 75.300781 271.320312 C 71.144531 268.992188 69.65625 263.726562 71.984375 259.574219 C 76.214844 252.03125 81.394531 245.117188 85.789062 237.699219 Z M 112.460938 62.441406 C 102.175781 65.875 81.15625 74.355469 67.542969 96.277344 C 58.292969 111.175781 52.585938 132.167969 55.40625 161.636719 C 59.222656 201.476562 95.121094 233.980469 135.683594 236.597656 C 163.386719 238.386719 189.707031 233.269531 212.992188 201.570312 C 239.601562 165.335938 241.007812 123.570312 219.191406 90.265625 C 213.175781 81.085938 201.621094 72.90625 187.570312 66.984375 C 165.574219 57.71875 137.34375 54.136719 112.460938 62.441406 Z M 112.460938 62.441406 " fill-opacity="1" fill-rule="evenodd"/><path fill="#000000" d="M 141.015625 139.664062 C 140.238281 130.34375 139.792969 120.945312 139.21875 111.625 C 138.902344 106.472656 138.988281 101.253906 138.164062 96.144531 C 136.574219 98.128906 135.03125 100.15625 133.027344 101.746094 C 132.113281 102.46875 130.789062 102.316406 130.0625 101.40625 C 129.347656 100.492188 129.5 99.167969 130.40625 98.445312 C 132.3125 96.933594 133.710938 94.941406 135.230469 93.066406 C 135.546875 92.679688 136.105469 91.746094 136.636719 91.175781 C 137.234375 90.539062 137.898438 90.203125 138.433594 90.113281 C 140.515625 89.753906 142.542969 91.0625 144.011719 92.332031 C 144.871094 93.074219 145.640625 93.902344 146.453125 94.691406 C 147.597656 95.808594 148.9375 96.898438 149.910156 98.175781 C 150.617188 99.101562 150.441406 100.421875 149.511719 101.128906 C 148.589844 101.832031 147.269531 101.65625 146.5625 100.730469 C 145.710938 99.613281 144.511719 98.683594 143.511719 97.707031 C 143.167969 97.375 142.835938 97.03125 142.5 96.691406 C 143.160156 101.546875 143.121094 106.484375 143.414062 111.367188 C 143.988281 120.640625 144.433594 129.988281 145.210938 139.261719 C 145.378906 139.292969 145.554688 139.332031 145.726562 139.375 L 145.734375 139.375 C 148.082031 139.441406 149.503906 140.300781 150.449219 141.304688 C 151.441406 142.367188 151.957031 143.761719 152.078125 145.320312 C 152.171875 146.542969 151.949219 147.898438 151.925781 148.925781 C 151.925781 148.929688 151.925781 148.9375 151.925781 148.945312 C 158.09375 151.882812 164.214844 154.964844 170.324219 157.964844 C 174.402344 159.964844 178.359375 162.296875 182.628906 163.890625 C 181.785156 161.839844 180.894531 159.800781 180.527344 157.605469 C 180.363281 156.609375 181.046875 155.679688 182.046875 155.535156 C 183.046875 155.386719 184 156.078125 184.167969 157.074219 C 184.511719 159.160156 185.441406 161.078125 186.234375 163.035156 C 186.394531 163.433594 186.871094 164.257812 187.085938 164.90625 C 187.316406 165.628906 187.292969 166.277344 187.132812 166.714844 C 186.519531 168.4375 184.660156 169.390625 183.054688 169.941406 C 182.125 170.261719 181.15625 170.484375 180.210938 170.75 C 178.867188 171.125 177.460938 171.65625 176.070312 171.832031 C 175.0625 171.960938 174.125 171.253906 173.980469 170.253906 C 173.828125 169.253906 174.527344 168.339844 175.539062 168.210938 C 176.753906 168.054688 177.976562 167.5625 179.152344 167.234375 C 179.550781 167.121094 179.957031 167.019531 180.363281 166.914062 C 176.363281 165.300781 172.597656 163.125 168.734375 161.230469 C 162.75 158.296875 156.757812 155.277344 150.726562 152.398438 C 150.601562 152.574219 150.464844 152.742188 150.320312 152.902344 C 149.175781 154.164062 147.308594 154.957031 145.347656 155.074219 C 143.542969 155.179688 141.730469 154.703125 140.585938 153.960938 C 138.328125 152.507812 137.328125 149.5625 137.511719 147.074219 C 137.558594 146.425781 137.503906 145.0625 137.804688 143.816406 C 138.1875 142.269531 139.011719 140.90625 140.347656 140.035156 C 140.554688 139.902344 140.777344 139.777344 141.015625 139.664062 Z M 135.890625 64.640625 C 135.882812 62.746094 137.414062 61.207031 139.308594 61.203125 C 141.199219 61.199219 142.738281 62.730469 142.738281 64.625 C 142.746094 66.734375 142.8125 68.84375 142.851562 70.953125 C 142.882812 72.84375 141.375 74.40625 139.480469 74.4375 C 137.589844 74.472656 136.023438 72.960938 135.992188 71.070312 C 135.960938 68.925781 135.890625 66.785156 135.890625 64.640625 Z M 145.511719 222.386719 C 145.292969 220.507812 146.632812 218.800781 148.519531 218.582031 C 150.394531 218.359375 152.101562 219.703125 152.324219 221.582031 C 152.5 223.066406 152.65625 224.550781 152.824219 226.035156 C 153.039062 227.914062 151.6875 229.613281 149.804688 229.828125 C 147.929688 230.039062 146.230469 228.6875 146.015625 226.808594 C 145.847656 225.335938 145.6875 223.859375 145.511719 222.386719 Z M 180.433594 208.636719 C 178.941406 207.472656 178.675781 205.316406 179.835938 203.824219 C 181.003906 202.332031 183.160156 202.066406 184.652344 203.230469 C 186.21875 204.449219 187.910156 205.546875 189.375 206.886719 C 190.773438 208.160156 190.867188 210.332031 189.597656 211.730469 C 188.316406 213.125 186.148438 213.222656 184.75 211.949219 C 183.414062 210.726562 181.863281 209.746094 180.433594 208.636719 Z M 201.40625 182.898438 C 199.738281 181.996094 199.125 179.914062 200.023438 178.25 C 200.929688 176.589844 203.011719 175.972656 204.671875 176.875 C 206.269531 177.742188 207.980469 178.359375 209.609375 179.179688 C 211.292969 180.03125 211.976562 182.09375 211.117188 183.78125 C 210.265625 185.472656 208.210938 186.152344 206.515625 185.300781 C 204.832031 184.449219 203.066406 183.800781 201.40625 182.898438 Z M 212.332031 141.019531 C 210.441406 141.078125 208.859375 139.589844 208.804688 137.699219 C 208.75 135.808594 210.234375 134.226562 212.128906 134.167969 C 213.699219 134.121094 215.210938 133.949219 216.761719 133.695312 C 218.628906 133.382812 220.398438 134.648438 220.703125 136.515625 C 221.019531 138.378906 219.757812 140.148438 217.890625 140.457031 C 216.027344 140.765625 214.21875 140.960938 212.332031 141.019531 Z M 201.527344 98.835938 C 200.0625 100.039062 197.902344 99.832031 196.703125 98.371094 C 195.492188 96.910156 195.699219 94.746094 197.164062 93.546875 C 198.300781 92.613281 199.46875 91.746094 200.667969 90.894531 C 202.210938 89.800781 204.347656 90.164062 205.445312 91.707031 C 206.539062 93.25 206.175781 95.394531 204.632812 96.488281 C 203.566406 97.242188 202.527344 98.007812 201.527344 98.835938 Z M 173.304688 83.25 C 172.621094 85.015625 170.625 85.886719 168.871094 85.203125 C 167.105469 84.515625 166.230469 82.527344 166.914062 80.761719 C 167.441406 79.417969 168.296875 78.046875 168.617188 76.644531 C 169.03125 74.796875 170.863281 73.632812 172.710938 74.046875 C 174.550781 74.460938 175.722656 76.292969 175.308594 78.140625 C 174.917969 79.871094 173.949219 81.597656 173.304688 83.25 Z M 87.839844 84.542969 C 86.402344 83.316406 86.226562 81.148438 87.460938 79.710938 C 88.691406 78.273438 90.851562 78.101562 92.292969 79.332031 C 93.9375 80.738281 95.460938 82.261719 97.027344 83.757812 C 98.386719 85.070312 98.433594 87.242188 97.121094 88.605469 C 95.8125 89.972656 93.640625 90.015625 92.273438 88.707031 C 90.8125 87.300781 89.382812 85.867188 87.839844 84.542969 Z M 66.683594 121.003906 C 64.929688 120.304688 64.078125 118.308594 64.777344 116.550781 C 65.476562 114.792969 67.472656 113.933594 69.226562 114.636719 C 71 115.34375 72.78125 116.164062 74.601562 116.722656 C 76.414062 117.273438 77.429688 119.191406 76.882812 121.003906 C 76.324219 122.8125 74.410156 123.832031 72.597656 123.28125 C 70.59375 122.664062 68.632812 121.78125 66.683594 121.003906 Z M 60.128906 161.421875 C 58.253906 161.167969 56.933594 159.441406 57.1875 157.566406 C 57.441406 155.691406 59.167969 154.375 61.042969 154.625 C 62.917969 154.875 64.800781 155.128906 66.691406 155.25 C 68.578125 155.371094 70.015625 157 69.894531 158.890625 C 69.777344 160.777344 68.140625 162.214844 66.257812 162.09375 C 64.207031 161.960938 62.164062 161.691406 60.128906 161.421875 Z M 76.707031 196.453125 C 74.964844 197.1875 72.949219 196.371094 72.214844 194.625 C 71.484375 192.882812 72.304688 190.871094 74.042969 190.136719 C 75.507812 189.519531 76.738281 188.675781 78.058594 187.816406 C 79.648438 186.785156 81.769531 187.238281 82.800781 188.828125 C 83.835938 190.414062 83.382812 192.539062 81.792969 193.566406 C 80.125 194.652344 78.550781 195.679688 76.707031 196.453125 Z M 111.269531 225.085938 C 110.148438 226.609375 108.003906 226.933594 106.476562 225.8125 C 104.949219 224.691406 104.625 222.542969 105.746094 221.019531 C 107.375 218.804688 109.28125 216.636719 110.472656 214.140625 C 111.285156 212.433594 113.335938 211.707031 115.042969 212.519531 C 116.753906 213.332031 117.476562 215.378906 116.664062 217.089844 C 115.289062 219.976562 113.152344 222.527344 111.269531 225.085938 Z M 111.269531 225.085938 " fill-opacity="1" fill-rule="evenodd"/></svg>